<?xml version="1.0" encoding="utf-8"?>
<!-- Generator: Adobe Illustrator 22.0.1, SVG Export Plug-In . SVG Version: 6.00 Build 0)  -->
<svg version="1.1" xmlns="http://www.w3.org/2000/svg" xmlns:xlink="http://www.w3.org/1999/xlink" x="0px" y="0px"
	 viewBox="0 0 768 1024" style="enable-background:new 0 0 768 1024;" xml:space="preserve">
<style type="text/css">
	.st0{fill:#00B4F1;}
	.st1{fill:#0009B9;}
	.st2{fill:#2200FF;}
	.st3{fill:#0006E7;}
	.st4{fill:#006FE7;}
	.st5{fill:#FFE18B;}
	.st6{fill:#985900;}
	.st7{fill:#663100;}
	.st8{fill:#E41800;}
	.st9{fill:#FFFFFF;}
	.st10{fill:#874628;}
	.st11{fill:#6E8B42;}
	.st12{fill:#637C38;}
	.st13{fill:#52692C;}
	.st14{fill:none;stroke:#52692C;stroke-width:0;stroke-linecap:round;stroke-linejoin:round;}
	.st15{fill:#6D2F15;}
	.st16{fill:#EFBF6B;}
	.st17{fill:#FBE3AF;}
	.st18{fill:#F7D286;}
	.st19{fill:#AB7819;}
	.st20{fill:#666666;}
	.st21{fill:#FF0000;}
	.st22{fill:#FFFB0D;}
	.st23{fill:#C9F7FF;}
</style>
<g id="Layer_3">
</g>
<g id="Layer_1">
</g>
<g id="Layer_2">
</g>
<g id="Layer_4">
</g>
<g id="Layer_5">
</g>
<g id="Layer_6">
	<g>
		<path class="st0" d="M604.3,0v27.2H600c39.5,0,75,17.7,98.8,45.6L753.3,19l3.5,3.6L702,76.6c17.4,22.1,27.8,50,27.8,80.3
			c0,30.2-10.3,58-27.6,80l1.9-1.6l51.2,62.8l-3.9,3.2L700.6,239c-21.5,26.3-53,44-88.7,47.2l1.4,76.2l-5,0.1l-1.4-75.9
			c-2.3,0.1-4.5,0.2-6.8,0.2c-30.5,0-58.5-10.5-80.6-28.1l-41.6,56.9l-4-3l41.7-57l2,1.5c-28.2-23.3-46.5-58.3-47.2-97.6h-93.1v-5
			h93.1c0.5-28.9,10.6-55.5,27.1-76.8l-1.9,1.6l-43-50.4l3.8-3.2l42.7,50.1c23.8-29.5,60.2-48.4,101.1-48.4h-0.7V0H0v85.2
			c20.9-12.5,50.1-24,75.2-30.9c40.4-11.1,96.8-26.7,131.9,4.8c14.8,13.2,30.7,39.3,24.6,67.1c22.9-1,45.1,3.1,62.2,18.5
			c15.2,13.6,31.7,40.8,24,69.6c-0.9,3.5-2.2,6.6-3.6,9.6c1.8,2.1,3.8,4.3,5.8,6.5c14.3,15.4,21.8,20.4,20.4,27.9
			c-3.7,19.5-61.7,26.1-108.3,23.8c-16.2,4.8-34.7,6.8-53.5,1.8c-11.3-3-18.6-7.5-25.3-13.2c-17.7-5.4-33.8-13.7-45.2-27.1
			c-2.7,2.2-5.5,4.2-8.2,6.2c-9.2,6.8-53,39.2-99.9,30.1V416c2.1,2.6,4.4,5.1,7,7.6c26-16.4,44.2-50.3,46.4-54.6
			c4.1-7.8,6.7-14.8,8.5-20.1c2.9,10.3,10.6,31.9,30.7,50.8c3.4,3.3,20.1,18.9,42.7,25.6c13.2-12.9,24.5-29.7,32.4-49.4
			c1.6,4.2,4.2,10.3,8.5,16.9c0.9,1.4,8.1,12.4,21.1,23.4c22.3-13.2,42-36.3,54-66.2c1.6,4.2,4.2,10.3,8.5,16.9
			c1.6,2.5,24,36.5,63.7,44.9c8.8-8.6,16.3-18.9,22-30.6c0.9,4.5,2.7,10.5,6.1,16.9c2.6,4.8,5.8,9.2,9.5,13.1
			c28.5-6.6,54-27,67.9-56c0.9,4.5,2.7,10.5,6.1,16.9c9.6,17.8,27.8,29.8,47.2,35.1c7.9-8.9,14.2-19.5,18.6-31.3
			c1.8,4.4,4.6,10.4,9.2,16.9c0.8,1.1,5.5,7.6,13.7,15c26.8-7.1,50-28.5,60.7-57.8c1.8,4.4,4.6,10.4,9.2,16.9
			c1.6,2.2,20.3,27.9,52,36.4c7.5-8.1,13.7-17.7,18.1-28.5c1,5.3,3.1,12.5,7.4,20.1c1.8,3.1,4.1,6.7,6.9,10.2
			c30-4.5,56.7-25.8,69.2-56.2c1,5.3,3.1,12.5,7.4,20.1c2,3.6,4.8,7.6,8.1,11.6c0.7-3.6,1.2-7.2,1.4-11.1c0,4.3,0,8.5,0.1,12.8
			c1.3,1.4,2.6,2.9,4,4.2V159.4h-36.4v-5H768V0H604.3z"/>
		<path class="st1" d="M423.5,436.1c1.8-0.1,3.7-0.2,5.5-0.4c8.5-8.4,15.7-18.4,21.2-29.8c0.9,4.5,2.7,10.5,6.1,16.9
			c0.6,1.2,1.3,2.3,2,3.4c8.8-4.8,16.9-11.3,23.8-19.1c-19.3-5.3-37.6-17.3-47.2-35.1c-3.5-6.4-5.2-12.4-6.1-16.9
			c-13.9,29-39.4,49.4-67.9,56C376.8,428.1,401.6,436.9,423.5,436.1z"/>
		<path class="st1" d="M587.2,431.7c7.7-8.8,14.1-19.3,18.3-31.1c1.8,4.4,4.6,10.4,9.2,16.9c0.4,0.6,1.9,2.6,4.4,5.5
			c9.8-4.9,18.7-11.6,26.3-19.8c-31.7-8.5-50.4-34.2-52-36.4c-4.6-6.5-7.4-12.6-9.2-16.9c-10.7,29.3-33.8,50.7-60.7,57.8
			c12.4,11.2,32.8,24.4,59.6,24.2C584.5,431.9,585.9,431.8,587.2,431.7z"/>
		<path class="st1" d="M34,443.8c5.7,3.1,12.2,5.9,19.3,7.8c2.2-2.6,4.3-5.3,6.2-7.8c8.6-11.6,14.1-21.9,15.3-24.1
			c4.1-7.8,6.7-14.8,8.5-20.1c2.6,9.1,9,27.1,24.3,44.2c0.3,0.3,0.6,0.7,0.9,1c0.7-0.3,1.3-0.7,2-1c8.7-4.7,17-11,24.7-18.6
			c-22.6-6.7-39.2-22.4-42.7-25.6c-20-18.9-27.7-40.5-30.7-50.8c-1.7,5.3-4.4,12.3-8.5,20.1C51.1,373.3,33,407.2,7,423.6
			c0.7,0.6,1.3,1.3,2,1.9C11.4,427.9,20.7,436.6,34,443.8z"/>
		<path class="st1" d="M764.1,408.6c1.4-2.6,2.7-5.3,3.9-8.1v-14c-1.4-1.4-2.7-2.8-4-4.2C764,391.1,764.1,399.8,764.1,408.6z"/>
		<path class="st1" d="M272.5,400.6c1.6,4.2,4.2,10.3,8.5,16.9c0.6,1,4.6,7.1,11.7,14.5c11.2-4.7,21.6-11.7,30.6-20.4
			c-39.6-8.3-62.1-42.4-63.7-44.9c-4.2-6.6-6.9-12.7-8.5-16.9c-12,29.8-31.7,53-54,66.2c12.5,10.6,30.3,21.1,52.9,23
			C259,428.1,266.6,415.2,272.5,400.6z"/>
		<path class="st1" d="M717.4,427.6c19.7-0.8,39.6-19.7,45.1-47.1c-3.3-4-6.1-8-8.1-11.6c-4.3-7.6-6.4-14.8-7.4-20.1
			c-12.5,30.4-39.2,51.7-69.2,56.2C687,416.6,701.2,428.3,717.4,427.6z"/>
		<path class="st2" d="M108.4,444.8c1.7,1.9,3.5,3.7,5.4,5.5c2.4,2.3,11.5,10.9,24.7,18.1c3.1-5.1,5.1-8.9,5.8-10.1
			c2.8-5.3,4.8-10.2,6.5-14.4c0.8-2,1.4-3.9,2-5.6c0.5,1.6,1,3.5,1.8,5.6c3.1,9,8.9,22.2,19.6,35.2c25.3,1,51.4-12.1,71.9-35.2
			c1.4-1.5,2.7-3.1,4-4.7c-22.6-1.9-40.4-12.4-52.9-23c-13-11-20.2-22-21.1-23.4c-4.2-6.6-6.9-12.7-8.5-16.9
			c-7.9,19.7-19.2,36.5-32.4,49.4c-7.7,7.6-16,13.8-24.7,18.6C109.8,444.2,109.1,444.5,108.4,444.8z"/>
		<path class="st2" d="M53.3,451.6c-7-1.9-13.5-4.7-19.3-7.8c-13.4-7.2-22.6-15.9-25.1-18.3c-0.7-0.6-1.3-1.3-2-1.9
			c-2.5-2.5-4.8-5.1-7-7.6v11.4v16.4v14.1c3.1,8.7,7,16.7,11.5,23.8C27.9,477.6,42.4,464.7,53.3,451.6z"/>
		<path class="st2" d="M305.6,443.8c7.4,5.8,16.4,11.3,26.9,15.1c2.8-4.8,5.4-9.9,7.7-15.1c0.7-1.5,1.3-3,1.9-4.6
			c0.5,1.4,1.1,2.9,1.9,4.6c1.6,3.6,3.7,7.8,6.6,12.3c0.4,0.7,2.4,3.7,5.9,7.9c0.2,0,0.5,0,0.7,0.1c22.4,1.3,44.6-6.2,62.7-20.3
			c3.2-2.5,6.3-5.2,9.2-8.1c-1.8,0.2-3.7,0.3-5.5,0.4c-21.9,0.8-46.7-8-62.6-24.9c-3.7-3.9-6.9-8.3-9.5-13.1
			c-3.5-6.4-5.2-12.4-6.1-16.9c-5.6,11.7-13.1,22-22,30.6c-9,8.7-19.4,15.7-30.6,20.4C296.2,435.8,300.5,439.8,305.6,443.8z"/>
		<path class="st2" d="M458.3,426.3c4.3,6.8,9.8,12.6,16.2,17.5c10.6,8.1,23.5,13.5,36.4,15.8c3.3-4.7,6.3-9.8,8.8-15.1
			c0.9,4.4,2.6,10.3,5.9,16.5c0.9,0,1.9,0,2.8,0c16.6-0.6,32.6-6.8,46-17.1c4.6-3.6,8.9-7.6,12.9-12.1c-1.4,0.1-2.7,0.1-4.1,0.2
			c-26.8,0.3-47.2-13-59.6-24.2c-8.2-7.4-12.9-13.9-13.7-15c-4.6-6.5-7.4-12.6-9.2-16.9c-4.3,11.9-10.7,22.5-18.6,31.3
			C475.1,415,467.1,421.5,458.3,426.3z"/>
		<path class="st2" d="M619.1,423.1c4.7,5.4,12.9,13.7,24.3,20.7c7.1,4.4,15.3,8.2,24.7,10.6c1.9-3.4,3.7-6.9,5.2-10.6
			c0.6-1.5,1.2-3,1.8-4.6c0.6,1.4,1.2,2.9,2,4.6c1.7,3.6,4,7.9,7.2,12.3c0.1,0.1,0.2,0.3,0.4,0.5c1.1,0,2.2,0.1,3.3,0.1
			c15.4-0.2,30.3-4.8,43.3-12.9c13.4-8.4,24.9-20.4,32.8-35.2c0-8.8-0.1-17.6-0.1-26.4c0-4.3,0-8.5-0.1-12.8
			c-0.2,3.8-0.7,7.5-1.4,11.1c-5.5,27.5-25.5,46.3-45.1,47.1c-16.2,0.6-30.4-11.1-39.6-22.6c-2.8-3.5-5.1-7-6.9-10.2
			c-4.3-7.6-6.4-14.8-7.4-20.1c-4.4,10.7-10.6,20.3-18.1,28.5C637.8,411.5,628.9,418.2,619.1,423.1z"/>
		<path class="st3" d="M108.4,444.8c-0.3-0.3-0.6-0.7-0.9-1c-15.3-17.1-21.7-35.1-24.3-44.2c-1.7,5.3-4.4,12.3-8.5,20.1
			c-1.2,2.3-6.6,12.5-15.3,24.1c-1.9,2.6-4,5.2-6.2,7.8c-10.9,13-25.3,26-41.8,30.1c8.3,13.3,18.5,23.7,29.4,30.6
			c10,6.3,20.5,9.6,30.5,9.3c10.4-0.3,20.1-4.4,28.8-10.3c17.4-11.8,31-31.1,38.3-43c-13.1-7.2-22.2-15.7-24.7-18.1
			C111.9,448.5,110.1,446.7,108.4,444.8z"/>
		<path class="st3" d="M458.3,426.3c-0.7-1.1-1.4-2.3-2-3.4c-3.5-6.4-5.2-12.4-6.1-16.9c-5.4,11.3-12.7,21.4-21.2,29.8
			c-2.9,2.9-6,5.6-9.2,8.1c-18.1,14.1-40.3,21.6-62.7,20.3c-0.2,0-0.5,0-0.7-0.1c10.5,12.8,34.6,36.5,70.3,38.6
			c32.5,1.9,64.5-14.7,84.2-43.1c-12.9-2.3-25.8-7.7-36.4-15.8C468.1,438.9,462.5,433.1,458.3,426.3z"/>
		<path class="st3" d="M731.3,443.8c-13,8.1-27.9,12.7-43.3,12.9c-1.1,0-2.2,0-3.3-0.1c3.7,5.1,30.2,39.1,72.9,38.6
			c2.3,0,4.6-0.2,6.9-0.4c1.2-0.1,2.4-0.3,3.5-0.4v-50.7v-43.3c-1.2,2.8-2.5,5.5-3.9,8.1C756.2,423.4,744.8,435.4,731.3,443.8z"/>
		<path class="st3" d="M292.7,432.1c-7.1-7.4-11.1-13.5-11.7-14.5c-4.2-6.6-6.9-12.7-8.5-16.9c-5.8,14.5-13.5,27.5-22.4,38.4
			c-1.3,1.6-2.6,3.2-4,4.7c-20.5,23-46.6,36.2-71.9,35.2c2.8,3.4,5.8,6.7,9.3,10c2.7,2.6,13.8,13.1,29.6,20.6
			c8.2,3.9,17.7,7.1,28,7.9c13.9,1.1,28.1-2.2,41.6-9c19.2-9.8,36.8-26.9,49.8-49.4c-10.5-3.8-19.5-9.4-26.9-15.1
			C300.5,439.8,296.2,435.8,292.7,432.1z"/>
		<path class="st3" d="M619.1,423.1c-2.5-2.9-4-4.9-4.4-5.5c-4.6-6.5-7.4-12.6-9.2-16.9c-4.3,11.8-10.6,22.2-18.3,31.1
			c-3.9,4.5-8.2,8.5-12.9,12.1c-13.4,10.3-29.4,16.5-46,17.1c-0.9,0-1.8,0-2.8,0c0.1,0.2,0.2,0.3,0.2,0.5
			c13.8,25.4,45.1,39,72.1,38.1c28.5-1,55-18.4,70.2-45.1c-9.4-2.3-17.7-6.2-24.7-10.6C632,436.8,623.8,428.5,619.1,423.1z"/>
		<path class="st4" d="M757.6,495.3c-42.7,0.5-69.2-33.5-72.9-38.6c-0.2-0.2-0.3-0.4-0.4-0.5c-3.1-4.5-5.5-8.7-7.2-12.3
			c-0.8-1.7-1.5-3.2-2-4.6c-0.6,1.6-1.2,3.1-1.8,4.6c-1.5,3.7-3.3,7.2-5.2,10.6c-15.2,26.7-41.7,44.1-70.2,45.1
			c-27,1-58.4-12.6-72.1-38.1c-0.1-0.2-0.2-0.3-0.2-0.5c-3.3-6.2-5-12-5.9-16.5c-2.6,5.3-5.5,10.4-8.8,15.1
			c-19.8,28.3-51.7,45-84.2,43.1c-35.7-2.1-59.8-25.8-70.3-38.6c-3.5-4.2-5.4-7.2-5.9-7.9c-2.9-4.5-5-8.8-6.6-12.3
			c-0.7-1.7-1.4-3.2-1.9-4.6c-0.6,1.5-1.3,3.1-1.9,4.6c-2.3,5.3-4.9,10.3-7.7,15.1c-13,22.5-30.6,39.6-49.8,49.4
			c-13.5,6.9-27.7,10.1-41.6,9c-10.3-0.8-19.8-3.9-28-7.9c-15.8-7.5-26.9-18-29.6-20.6c-3.5-3.3-6.5-6.6-9.3-10
			c-10.7-13-16.5-26.1-19.6-35.2c-0.7-2.1-1.3-4-1.8-5.6c-0.6,1.7-1.2,3.6-2,5.6c-1.6,4.3-3.7,9.2-6.5,14.4c-0.7,1.3-2.7,5-5.8,10.1
			c-7.3,11.9-20.9,31.2-38.3,43c-8.8,6-18.5,10-28.8,10.3c-10,0.3-20.5-3-30.5-9.3C30,505.5,19.8,495,11.5,481.8
			C7,474.6,3.1,466.6,0,457.9v25.2V513v26.8v24.3v25.6v14.1v21.9c5,1.3,10,2.8,14.8,4.9c2,0.9,3.7,2,4.9,3.3c0-0.1,0-0.1,0.1-0.2
			c4.8-11,10.6-21.3,17.5-30.5c1.3-1.7,2.5-3.3,3.9-4.9c3.2-3.9,6.6-6.2,10.1-8.5c2.4-1.6,4.8-3.1,7.3-5.1c5.2-4.1,10-7.6,15.9-10
			c14.3-5.9,30.4-8.7,45.7-6.4c1.4,0,2.8,0.1,4.4,0.6c1.1,0.3,2.2,0.7,3.4,1.1c6,1.7,11.7,4.2,17.1,7.8c4.7,1.4,9,6.5,12.7,12
			c0.2,0.3,0.4,0.5,0.5,0.8c0.4,0.4,0.7,0.7,1.1,1c0.5,0.5,0.6,1.1,0.6,1.7c1.6,2.6,2.9,5.1,4.1,7.1c0.1,0.2,0.3,0.5,0.4,0.7
			c1,1.8,2.1,3.6,3.1,5.5c5.6,9.2,9.8,19.8,11.2,29.7c0.1,0.5,0.1,1.1,0,1.5c0.1,0.7,0.1,1.5,0.1,2.3c0,1.1-0.5,1.8-1.2,2.2
			c0.3,1.4-0.4,3-1.9,2.7c-5-1.1-11.9-1-16.4-4.3c-2-1.5-3.2-4.5-4.5-7c0,0-0.1-0.1-0.1-0.1c-1.2-1-2.1-2.3-2.9-3.7
			c-1.1-0.6-2.4-0.6-4.1,0.4c-2.6,1.5-1.7,4.8-5.6,3.6c-3.4-1.1-7-11-9.3-16.4c-0.6,1.1-1.3,2-2,2.8c-0.9,1.5-1.8,2.9-3.8,3.8
			c-4.6,2.2-10.3,2-15.3,2.3c-0.5,0.3-1,0.4-1.6-0.1c-0.5-0.2-0.9-0.6-1.1-1.2c0,0,0-0.1-0.1-0.1c-1.7-2-3.4-4.2-4.9-6.4
			c-0.1-0.1-0.2-0.2-0.3-0.3c-0.1-0.1-0.1-0.2-0.2-0.4c-0.5-0.7-0.9-1.3-1.4-2c-2.2,4.6-5.1,8.5-9,11.3c1.8,0.8,3.5,1.8,5.3,2.9
			c0.7,0.2,1.4,0.5,2,0.8c7.7,3.2,14.5,8.7,20.7,15.3c9.4-1.1,18.8-1.3,28.4-0.2c12.4,1.3,22.2,4.3,30.7,8.4c4.9-2.1,9.5-2,14.7-3.4
			c5-1.3,9.6-2.4,14.7-2.2c12.5,0.4,25.7,3.9,37,11.1c1.1,0.4,2.2,1.1,3.3,2c0.8,0.7,1.6,1.3,2.3,2c4.2,3.4,8.1,7.4,11.4,12.1
			c3.5,2.9,5.6,8.8,7.1,14.6c0.2,0.4,0.4,0.8,0.6,1.2c0.2,0.5,0.2,1.1,0.1,1.5c0.6,2.6,1,5,1.4,7c0.4,2,0.8,4,1.2,6
			c0.5,2.3,1,4.7,1.3,7.1c61.5,21.3,113.8,4.5,174.3-14.6V652h18.8v11.7l4.6,0.5v-37.8h20.2v9.7l4.4,0.2l-0.4-36.7h15.3v8.9h4.9
			v-13.2v-5.5v-31.7h3.8l35.2,14.5l-34.8,7.3l-0.4-21.8l0.3,31.7l0,5.4l0.1,13.3h4.9v-8.9h14.9V636l-12.5,0.4l16.2-0.5v-8.5
			l18.9-0.9v36.3l-12.7,0.9l15.6,0.6V652h18.2v16.1c13.4-1.1,27.3-1.7,41.9-1.4c12.2,0.2,26,1,41.1,2.8c-5.1-19.6-5.1-40.6-0.1-60
			c1.6-6.2,4.1-11.8,7.3-16.8c0.6-1,1.3-1.9,2-2.9c8.2-11.2,20.3-19,34.7-22.6c8.3-2.1,16.6-2.6,24.9-2.1c9.8-0.2,19.3,1.5,27.4,5.2
			c1.1,0.3,2.1,0.7,3.2,1v-19.9v-51.1v-5.9c-1.2,0.2-2.3,0.3-3.5,0.4C762.2,495.1,759.9,495.2,757.6,495.3z"/>
		<path class="st4" d="M52.1,662.6c-0.2,0.1-0.4,0.2-0.6,0.3c-0.1,0-0.2,0.1-0.2,0.1C51.5,662.9,51.8,662.8,52.1,662.6
			C52.1,662.6,52.1,662.6,52.1,662.6z"/>
		<path class="st5" d="M591.7,1003.6c-2.5-3.3-4.6-6.9-6.4-10.6c-0.3-0.3-0.5-0.6-0.8-1c-5.2-6-9.6-11.8-10.7-19.9
			c-1.1-7.7,0.3-15.8,2.2-23.4c6.3-25.8,22.7-48.7,44.7-63.4c-21.5-9.3-39.3-26.4-48.8-48.2c-12.5-28.6-11.9-65.2,9.1-89.8
			c0.4-0.5,0.9-1,1.3-1.5c3-3.8,6.1-7.1,9.1-9.9c3.1-2.9,6.1-5.3,8.8-7.2c2.1-1.8,4.2-3.7,6.4-5.4c3.8-3.1,7.9-5.9,12.2-8.2
			c8.8-4.6,19.4-6.9,29.1-5c0-0.1,0-0.2,0-0.3c1.7-14.2,8.2-29.1,21.9-35.4c0.1-0.1,0.2-0.1,0.4-0.1c-0.5-1.7-1-3.3-1.4-5
			c-15.1-1.8-28.9-2.6-41.1-2.8c-14.6-0.3-28.5,0.3-41.9,1.4v3.6l16.3,5l-5.1,15.6l-11.2-3.2v0.4l0.1-0.4l5.4,1.5l-5.5,17.3v3.7
			h-1.2l0,0.1l1.3,2.1h0v-0.5h3.6l-3.7,10.1l-1,2.7l-9.3-2.7l-6.8-2l3.5-9.8H449.9v-12.9c-60.5,19.1-112.8,35.9-174.3,14.6
			c0.5,3.4,0.8,6.8,0.8,10.1c0,3.4-0.2,6.7-0.7,9.8c-0.1,0.5-0.2,0.8-0.4,1.2c-0.1,0.6-0.3,1.2-0.4,1.8c-0.2,0.8-0.8,1.2-1.4,1.3
			c-0.1,1.1-1.1,2.2-2.1,1.4c-3.6-2.6-9-5-11.7-9.1c-1.1-1.7-1.3-4.1-1.7-6.4c0-0.2-0.1-0.4-0.1-0.6c0,0,0-0.1-0.1-0.1
			c-0.7-1.2-1.1-2.5-1.3-3.8c-0.7-0.8-1.7-1.3-3.3-1.1c-2.3,0.2-2.5,3.2-5.2,0.8c-2.4-2-2.8-11-3.2-15.9c-0.8,0.6-1.5,1.1-2.2,1.5
			c-1.1,0.9-2.1,1.6-3.8,1.6c-4.1,0.1-8.5-2.1-12.4-3.6c-0.4,0.1-0.9-0.1-1.2-0.6c-0.3-0.3-0.6-0.8-0.6-1.3c0,0,0-0.1,0-0.1
			c-0.9-2.2-1.6-4.4-2.2-6.7c0-0.1-0.1-0.2-0.1-0.3c0-0.1,0-0.2-0.1-0.3c-0.2-0.7-0.4-1.4-0.6-2c-2.8,2.8-6,4.8-9.7,5.6
			c1.2,1.3,2.3,2.7,3.4,4.1c0.5,0.4,0.9,0.9,1.4,1.3c5.8,5.8,10,13.5,13.4,21.8c3.7,9.1,6.5,19,9.3,28.3c0.7,2.1,1.3,4.2,2,6.3
			c0.1,0.4,0.1,0.7,0,1c0,0,0,0.1,0,0.1c0.9,1.7-1.1,3.8-2.3,2.3c-0.5-0.7-1.1-1.4-1.7-2.1c-0.2-0.3-0.3-0.6-0.4-0.9
			c-1.7-1.3-4.3-3.2-6.9-5.3c0,0,0,0,0,0c-0.4,2.4,3.5,2.2,3.9,5.1c0.2,1.4-0.3,2.5,0.2,3.9c0.3,1,0.9,1.9,1.4,2.8
			c0.8,1.6,1.3,3.3,1.8,5c2.4,8.7,4.4,17.8,4.5,27c-0.6,1.2-1.4,2.1-2.6,2.9c-0.3,0.2-0.6,0.5-1,0.7c-1.1,0.6-2.2,1.2-3.3,1.8
			c-0.2,0-0.4,0.1-0.6,0.1c-0.4,0-0.8-0.1-1.2-0.2c-3.6-3.2-8.5-4-12.6-6.2c-4.8-2.6-9.3-5.6-14.5-6.6c-0.6-0.1-0.7-1-0.4-1.5
			c0.2-0.4,0.5-0.7,0.7-1.1c0.1-0.5,0.4-0.9,0.9-1.1c0.1-0.2,0.3-0.3,0.4-0.5c-3-2.2-6-4.3-9.1-6.2c-2.7-1.7-6.3-2.9-8.6-5.3
			c-0.2-0.2-0.3-0.6-0.2-0.9c0.6-2.9,2.3-5.8,3.6-8.4c-0.9-0.4-1.8-0.9-2.6-1.5c0,0.3,0,0.6-0.2,0.9c-0.9,1.7-2,3.4-2.7,5.2
			c-0.8,1.9-0.5,3.2-0.1,5c0.5,2.4-1.2,4.5-2.3,6.3c-1.3,4.7-4.3,14-7.2,11c-1.2-1.2-1.8-4.1-2.5-5.8c-0.9-2.4-1.8-4.9-2.8-7.2
			c-1.9-4.7-4.4-8.9-7-13.2c-0.1-0.2-0.2-0.3-0.3-0.5c-0.2,0-0.4-0.1-0.6-0.4c-0.1-0.3-0.2-0.5-0.4-0.8
			c3.1,44.9-15.2,90.5-16.6,135.5c-0.1,2.9-2,5.3-4.6,4.6c-8.7-2.4-17.5-4.7-26.2-7.1c-1.3,0.2-2.8-0.5-3.7-1.8
			c-0.9-1.2-1.1-2.9-0.7-4.5c1.3-10,3.3-19.7,5.5-29.4c0,0,0,0,0,0c0.2-0.6,0.3-1.3,0.5-1.9c0.1-0.4,0.2-0.8,0.3-1.3
			c0.2-1,0.4-2,0.6-3c0,0,0,0,0,0c3.2-13.5,6.6-26.9,9-40.6c1.9-10.6,3-21.3,3.5-32l0.1-2.7c-0.1-0.1-0.2-0.2-0.3-0.2
			c0.1-1.8,0.1-3.6,0.2-5.5c0.1-0.1,0.2-0.3,0.3-0.4c0.1-5.6,0-11.3-0.3-16.9c-0.1-2.7-0.3-5.4-0.5-8.1c-1.1,0.9-1.8,1.8-3.3,2.3
			c-1,0.4-2.1,0.2-3.1,0.4c-1,0-2,0.1-3,0.1c-0.9,1.4-1.8,2.8-2.7,4.2c0,0,0,0,0,0.1c-0.3,0.5-0.5,1.1-0.8,1.6
			c-0.1,0.2-0.2,0.4-0.3,0.6c0,0.1-0.1,0.2-0.2,0.3c-0.2,0.4-0.4,0.8-0.6,1.1c-0.1,0.2-0.3,0.4-0.4,0.6c-0.1,0.1-0.2,0.2-0.3,0.4
			c0,0.1-0.1,0.1-0.1,0.2c-0.5,0.6-1,1.2-1.5,1.8c0,0,0,0,0,0c-0.2,0.3-0.4,0.6-0.6,0.9c0,0-0.1,0.1-0.1,0.1c-0.2,0.3-0.4,0.6-0.5,1
			c-2.6,3-5.3,6.3-8.1,9.4c-0.3,0.4-0.6,0.7-1,1.1c-7.8,8.4-16.6,15.4-26.5,13.6c4.6,33.8,6.3,68.9,15.2,100.5
			c0.9,3.3-0.4,7-3.5,7.5c-10.7,1.8-21.4,3.6-32.1,5.4c-1.4,0.9-3.3,0.9-4.8-0.1c-1.5-0.9-2.3-2.8-2.4-4.7
			c-2.1-11.9-3.3-24-4.3-36.1c0,0,0,0,0,0c0-0.8-0.1-1.6-0.1-2.4c0-0.5-0.1-1.1-0.1-1.6c-0.1-1.2-0.2-2.5-0.3-3.7c0,0,0,0,0,0
			c-1.2-16.8-2.1-33.7-4.3-50.4c-1.8-14-4.6-27.6-8.2-41c-0.1,0-0.3-0.1-0.4-0.1c-0.1-0.2-0.1-0.5-0.2-0.7c-0.5-1.8-1-3.7-1.6-5.6
			c0-0.2,0.1-0.4,0.1-0.6c-0.6-1.9-1.2-3.9-1.8-5.8c-0.8-0.6-1.3-1.6-1.9-3.6c-0.4-1.5-0.7-3.1-0.9-4.8c-1.6-4.6-3.4-9.1-5.2-13.6
			c-0.9,1.5-1.4,2.9-2.9,4.2c-1,0.9-2.3,1.3-3.4,2.1c-1.1,0.5-2.2,1.1-3.3,1.6c-0.5,2.1-1,4.1-1.6,6.2c0,0,0,0,0.1,0.1
			c-0.2,1-0.3,2-0.5,3c0,0.1,0,0.3-0.1,0.4c-0.1,0.5-0.2,1.1-0.3,1.6c-0.1,0.3-0.2,0.6-0.3,0.9c-0.1,0.2-0.1,0.4-0.2,0.6
			c0,0.1-0.1,0.2-0.1,0.2c-0.3,0.9-0.7,1.9-1,2.8c0,0.1,0,0.1-0.1,0.2c-0.1,0.4-0.2,0.8-0.3,1.1c0,0.1-0.1,0.3-0.1,0.4
			c-0.1,0.4-0.2,0.8-0.2,1.2c-1.1,2.8-2.2,5.7-3.3,8.6c-0.8,2.1-1.6,4.1-2.5,6.2c-0.2,0.6-0.5,1.2-0.7,1.7c-0.5,1.1-0.9,2.1-1.4,3.2
			V1024h291.6V749.4v-5.5h18.1h10h20.9v-0.8h10v0.8H369h10h17.2h10h8.3h10.3h10h16.3V1024h145.8c-0.6-2.9-1.2-5.9-1.7-8.9
			C594.3,1010.9,593.2,1007.1,591.7,1003.6z"/>
		<path class="st5" d="M79.1,762.1c-0.5,1.6-1,3.3-1.5,5.1c0.5-1.4,0.9-2.7,1.3-4.1C78.9,762.8,79,762.5,79.1,762.1z"/>
		<path class="st5" d="M171.1,709.1c-0.2,0-0.4,0-0.5,0c-0.1,0-0.1,0-0.2,0C170.6,709.1,170.8,709.1,171.1,709.1
			C171.1,709.1,171.1,709.1,171.1,709.1z"/>
		<path class="st5" d="M132,656c0,0,0.1,0.1,0.1,0.1c6,4.8,12.5,9.4,18,15.1c1.4,1.4,2.4,2.8,3,4.3c0,0,0.1-0.1,0.1-0.1
			c7.6-8.1,16-14.9,25.2-19.9c0.7-0.4,1.4-0.7,2.1-1c-8.5-4.1-18.2-7.1-30.7-8.4c-9.6-1-19-0.9-28.4,0.2c1.8,2,3.6,4,5.4,6.1
			C128.7,653.4,130.4,654.6,132,656z"/>
		<path class="st5" d="M32.2,689.7C32.2,689.8,32.2,689.8,32.2,689.7c0,0.1,0,0.1,0,0.1C32.3,689.8,32.3,689.8,32.2,689.7z"/>
		<path class="st5" d="M208,732.4c-0.1,0-0.1,0-0.2,0c0.1,0.1,0.1,0.1,0.2,0.2C208,732.6,208,732.5,208,732.4z"/>
		<path class="st5" d="M139.1,742.3C139.1,742.4,139.1,742.4,139.1,742.3c0,0.1,0,0.1,0,0.1C139.1,742.4,139.1,742.4,139.1,742.3z"
			/>
		<path class="st5" d="M74.6,756.3c-0.4,0.1-0.7,0.2-1.1,0.4c0.2,0.8,0.4,1.6,0.5,2.4c0.4,2,0.9,4.1,1.2,6.1c0.5-2.1,1-4.2,1.7-6.2
			c0.3-1.1,0.7-2.2,1.1-3.2c-0.2,0-0.3-0.1-0.5-0.1c-0.5,0.3-1,0.5-1.7,0.6C75.4,756.2,75,756.2,74.6,756.3z"/>
		<path class="st6" d="M710.2,578.2c-7.2,2.4-14,6.3-19.6,11.5c-0.9,0.9-1.8,1.7-2.6,2.7c0,0,0,0,0,0c-7.1,8.1-10.1,18.7-11.7,29.1
			c-2.6,16.3-1.6,33.3,3,49.2c0.3,0.9,0.5,1.7,0.8,2.6c0.7,2.2,1.5,4.4,2.4,6.6c3.6,9,8.8,17.4,15.2,24.7c6.7,7.6,14.7,14,23.5,18.7
			c4.8,2.6,9.9,4.7,15.2,6.1c10.1,2.9,20.9,3.6,31.7,1.4v-2.9v-4.7v-30.3v-0.6V591.1v-1.4v-8C749.3,575.5,729.4,571.9,710.2,578.2z"
			/>
		<path class="st6" d="M737.4,565.1c9.2,0.6,18.4,2.5,27.4,5.2C756.7,566.6,747.2,564.9,737.4,565.1z"/>
		<path class="st6" d="M766,853.7c-0.1,0.6-0.3,1.2-0.4,1.7c-3.8,15.4-9.7,32.7-27.3,36c-3.7,0.7-7.4,0.8-11.1,0.7
			c-11.6-0.4-23.2-3.8-34.9-2.9c-0.1,0-0.2,0-0.3,0c-9,0.7-17.9,2.9-26.9,3.6c-7.8,0.6-15.5,0.1-23.2-1.2c-2.7-0.5-5.4-1.1-8.1-1.8
			c-0.3-0.1-0.7-0.2-1-0.3c-13.3,7.4-24.7,17.8-33.3,30.5c-5.6,8.4-10,17.6-12.9,27.3c2.1,0.9,3.8,3,3.2,5.8
			c-2.5,11.8-0.9,24,4.2,34.7c2.7,3.3,5.1,6.7,6.9,10.8c0.1,0.1,0.1,0.3,0.2,0.4c0.9,1.2,1.9,2.3,2.9,3.4c2.1,2.2,1.6,4.9,0.1,6.7
			c0.9,4.1,1.6,8.3,2.4,12.4c0.2,0.8,0.3,1.5,0.5,2.3H768V891.7v-37.6v-34.9c-1.4,0.4-2.9,0.8-4.4,1.1
			C769.3,830.1,768.5,842.7,766,853.7z"/>
		<path class="st6" d="M713.2,730.6c-1.7-1-3.4-2-5.1-3.1c-1.9-1.3-3.7-2.6-5.5-4c-13.2-10.4-22.9-24.2-29.2-39.5
			c-10.5,5.6-15.5,18.1-16.1,30c0.4,0.2,0.9,0.5,1.3,0.8c0.7,0.4,1.3,0.9,1.9,1.3c2.6,2,2.5,5.3,1.2,7.4c-0.7,1.1-1.8,2-3,2.2
			c1.1,2.7,2.9,5,4.8,7.2c1.9,2.2,3.9,4.3,5.7,6.7c3.9,5.3,6.3,11.7,8.1,18c3.8,13.6,5.7,27.2,15.9,37.8
			c13.3,13.8,31,18.3,48.9,17.7c8.7-0.3,17.6-1.9,26-4.2v-67.6C749.2,744.3,729.7,740.1,713.2,730.6z"/>
		<path class="st6" d="M582.1,745.9c3.1-3.5,6.4-6.7,9.9-9.9c2.4-2.2,4.7-4.3,7.1-6.4c0.3-0.2,0.6-0.5,0.8-0.7
			c-2.6,1.9-5.6,4.3-8.8,7.2C588.2,738.8,585.1,742.1,582.1,745.9z"/>
		<path class="st6" d="M647.7,723.4c-0.1-1-0.2-1.9-0.3-2.9c-7.4-2.1-15.3-0.5-22.5,2.9c-4.1,1.9-8.1,4.5-11.5,7.2
			c-1.9,1.5-3.9,3.1-5.9,4.7c-10.4,8.5-21,18.5-26.9,30.1c-12.3,24.4-8.1,55.8,6,78.5c10.3,16.6,26.8,28.9,45.3,35
			c0.3,0.1,0.6,0.2,0.9,0.3c0.6,0.1,1.2,0.2,1.7,0.5c6.1,1.8,12.4,2.9,18.8,3.3c15.4,0.9,30.2-4.3,45.6-4c2.9,0.1,5.8,0.4,8.7,0.8
			c5.1,0.7,10.3,1.7,15.5,2.2c4.4,0.4,8.9,0.5,13.2-0.4c13.5-2.6,17.1-17.8,19.8-29.5c0.1-0.2,0.1-0.5,0.2-0.7
			c2.3-9.8,3.4-21.3-3.5-29.1c-3.9,0.5-7.9,0.9-11.8,0.9c-6.9,0.2-13.9-0.4-20.7-2c-15.1-3.4-29.3-11.8-38.8-24.2
			c-10-13.1-10.3-29.1-16.2-43.9c-3.1-7.9-9.8-12.3-14-19.4c-0.1-0.1-0.1-0.2-0.2-0.4c-1-1.8-1.8-3.7-2.4-5.6
			C648.2,726.3,647.9,724.9,647.7,723.4z"/>
		<path class="st7" d="M737.4,565.1c-8.3-0.5-16.6,0-24.9,2.1c-14.4,3.6-26.5,11.4-34.7,22.6c-0.7,0.9-1.4,1.9-2,2.9
			c-3.2,5-5.7,10.6-7.3,16.8c-5,19.4-5,40.4,0.1,60c0.4,1.7,0.9,3.4,1.4,5c-0.1,0-0.2,0.1-0.4,0.1c-13.7,6.3-20.2,21.1-21.9,35.4
			c0,0.1,0,0.2,0,0.3c-9.7-2-20.3,0.4-29.1,5c-4.3,2.3-8.4,5.1-12.2,8.2c-2.2,1.8-4.3,3.6-6.4,5.4c-0.3,0.2-0.6,0.5-0.8,0.7
			c-2.4,2.1-4.8,4.2-7.1,6.4c-3.4,3.2-6.8,6.4-9.9,9.9c-0.4,0.5-0.9,1-1.3,1.5c-21,24.6-21.6,61.2-9.1,89.8
			c9.5,21.7,27.3,38.9,48.8,48.2c-22,14.7-38.4,37.7-44.7,63.4c-1.8,7.5-3.3,15.6-2.2,23.4c1.1,8,5.6,13.9,10.7,19.9
			c0.3,0.3,0.5,0.6,0.8,1c1.8,3.7,3.9,7.2,6.4,10.6c1.5,3.6,2.6,7.4,3.4,11.6c0.6,3,1.1,5.9,1.7,8.9h6.8h3.3
			c-0.2-0.8-0.3-1.5-0.5-2.3c-0.8-4.1-1.5-8.3-2.4-12.4c1.5-1.8,2-4.5-0.1-6.7c-1-1.1-2-2.2-2.9-3.4c-0.1-0.1-0.1-0.3-0.2-0.4
			c-1.7-4.1-4.2-7.5-6.9-10.8c-5-10.7-6.6-22.9-4.2-34.7c0.6-2.9-1.1-5-3.2-5.8c2.8-9.7,7.2-18.9,12.9-27.3
			c8.5-12.7,20-23.1,33.3-30.5c0.3,0.1,0.7,0.2,1,0.3c2.7,0.7,5.4,1.3,8.1,1.8c7.7,1.3,15.4,1.8,23.2,1.2c9-0.7,17.9-2.9,26.9-3.6
			c0.1,0,0.2,0,0.3,0c11.7-0.9,23.3,2.4,34.9,2.9c3.7,0.1,7.4,0,11.1-0.7c17.6-3.3,23.5-20.6,27.3-36c0.1-0.6,0.3-1.2,0.4-1.7
			c2.5-11,3.3-23.6-2.3-33.4c1.5-0.3,2.9-0.7,4.4-1.1v-10.4c-8.4,2.3-17.3,3.9-26,4.2c-18,0.7-35.6-3.8-48.9-17.7
			c-10.2-10.6-12.1-24.2-15.9-37.8c-1.8-6.4-4.1-12.7-8.1-18c-1.8-2.5-3.8-4.6-5.7-6.7c-1.9-2.2-3.7-4.5-4.8-7.2
			c1.2-0.2,2.3-1,3-2.2c1.4-2.2,1.4-5.4-1.2-7.4c-0.6-0.5-1.3-0.9-1.9-1.3c-0.4-0.3-0.8-0.5-1.3-0.8c0.6-11.8,5.6-24.3,16.1-30
			c6.3,15.3,16,29.1,29.2,39.5c1.8,1.4,3.6,2.7,5.5,4c1.7,1.1,3.3,2.2,5.1,3.1c16.5,9.5,36,13.6,54.8,10.6V731
			c-10.8,2.1-21.6,1.4-31.7-1.4c-5.2-1.5-10.3-3.6-15.2-6.1c-8.8-4.7-16.8-11.1-23.5-18.7c-6.4-7.3-11.6-15.6-15.2-24.7
			c-0.9-2.2-1.6-4.4-2.4-6.6c-0.3-0.9-0.5-1.7-0.8-2.6c-4.7-15.9-5.6-32.9-3-49.2c1.6-10.4,4.6-21.1,11.7-29.1c0,0,0,0,0,0
			c0.8-0.9,1.7-1.8,2.6-2.7c5.5-5.3,12.3-9.1,19.6-11.5c19.2-6.4,39.1-2.8,57.8,3.6v-9.9v-0.6c-1.1-0.3-2.1-0.7-3.2-1
			C755.8,567.6,746.6,565.7,737.4,565.1z M651.2,733.8c4.2,7,10.9,11.5,14,19.4c5.9,14.8,6.2,30.8,16.2,43.9
			c9.4,12.4,23.7,20.8,38.8,24.2c6.9,1.6,13.8,2.2,20.7,2c3.9-0.1,7.9-0.4,11.8-0.9c6.9,7.8,5.8,19.3,3.5,29.1
			c-0.1,0.2-0.1,0.5-0.2,0.7c-2.7,11.7-6.4,26.9-19.8,29.5c-4.3,0.9-8.8,0.8-13.2,0.4c-5.2-0.5-10.4-1.5-15.5-2.2
			c-2.9-0.4-5.8-0.7-8.7-0.8c-15.4-0.3-30.2,4.9-45.6,4c-6.4-0.4-12.7-1.5-18.8-3.3c-0.5-0.3-1.1-0.4-1.7-0.5
			c-0.3-0.1-0.6-0.2-0.9-0.3c-18.5-6.1-34.9-18.4-45.3-35c-14.1-22.7-18.3-54.1-6-78.5c5.9-11.6,16.5-21.6,26.9-30.1
			c2-1.6,4-3.2,5.9-4.7c3.5-2.7,7.4-5.2,11.5-7.2c7.2-3.4,15.1-5,22.5-2.9c0.1,1,0.2,1.9,0.3,2.9c0.2,1.5,0.5,2.9,0.9,4.3
			c0.6,2,1.4,3.9,2.4,5.6C651.1,733.5,651.1,733.6,651.2,733.8z"/>
		<rect x="434.8" y="743.9" class="st8" width="16.3" height="280.1"/>
		<polygon class="st8" points="414.5,743.9 406.2,743.9 406.2,744.3 406.2,1024 424.7,1024 424.7,743.9 		"/>
		<polygon class="st8" points="396.2,743.9 379,743.9 379,745.5 379,1024 396.2,1024 396.2,744.7 		"/>
		<polygon class="st8" points="369,743.9 350.7,743.9 350.7,746.8 350.7,1023.2 340.6,1023.2 340.6,747.2 340.6,743.9 319.8,743.9 
			319.8,748.1 319.8,1024 369,1024 369,745.9 		"/>
		<polygon class="st8" points="309.8,743.9 291.6,743.9 291.6,749.4 291.6,1024 309.8,1024 309.8,748.6 		"/>
		<polygon class="st9" points="319.8,743.9 309.8,743.9 309.8,748.6 309.8,1024 319.8,1024 319.8,748.1 		"/>
		<polygon class="st9" points="340.6,1023.2 350.7,1023.2 350.7,746.8 350.7,743.9 350.7,743.1 340.6,743.1 340.6,743.9 
			340.6,747.2 		"/>
		<polygon class="st9" points="379,743.9 369,743.9 369,745.9 369,1024 379,1024 379,745.5 		"/>
		<polygon class="st9" points="406.2,743.9 396.2,743.9 396.2,744.7 396.2,1024 406.2,1024 406.2,744.3 		"/>
		<rect x="424.7" y="743.9" class="st9" width="10" height="280.1"/>
		<path class="st10" d="M73.9,786.2c-0.2-0.3-0.3-0.6-0.3-1c0-0.2,0-0.3,0-0.5c-0.2-6.7,0.3-13.2,1.8-19.5c-0.4-2-0.8-4.1-1.2-6.1
			c-0.2-0.8-0.4-1.6-0.5-2.4c-2.1,0.7-4.1,1.6-6,2.6c-0.1,0-0.1,0.1-0.2,0.1c-0.2,0.1-0.5,0.3-0.7,0.4c-0.9,0.5-1.7,1-2.5,1.6
			c-0.7,0.5-1.4,0.6-2.1,0.6c-0.1,0.1-0.1,0.1-0.2,0.2c-0.7,0.8-2.3,0.7-2.5-0.7c-0.1-0.4-0.1-0.8-0.2-1.3c-0.1-0.2-0.2-0.3-0.3-0.5
			c-0.3-0.6-0.4-1.2-0.5-2c0-0.3,0-0.6,0-0.9c0-0.3,0-0.7,0.1-1c-1-7-1.6-14.2-0.1-21.2c0.3-1.4,0.7-2.7,1.2-4
			c0.2-0.6,0.4-1.1,0.6-1.7c0.6-1.5,1.3-2.9,2-4.2c-0.5-0.4-1-0.9-1.5-1.3c-0.6-0.5-1.1-1-1.7-1.6c-0.1,0.2-0.3,0.4-0.4,0.6
			c-0.2,0.3-0.5,0.6-0.7,1c0,0-0.1,0.1-0.1,0.1c-0.8,1-1.6,2-2.4,3c-0.2,0.3-0.5,0.6-0.8,0.9c0,0,0,0,0,0c0,0,0,0,0,0
			c-0.7,0.8-1.3,1.5-2,2.2c-1,1.1-2.1,2.1-3.1,3.1c-1,2.1-1.9,4.3-2.9,6.4c-2.3,5.2-5.7,11-7.3,16.8c0,0,0.1,0.1,0.1,0.1
			c1.6,1.4,3.1,2.9,4.7,4.3c9.7,9,19.4,18,29.1,27c0.4,0.4,0.9,0.8,1.3,1.2c1.3,1.2,2.7,2.5,4,3.7c1.2,1.1,1.9,3.4,1.2,5.1
			c-0.8,1.7-1.5,3.4-2.3,5.2c-0.3,0.6-0.5,1.2-0.8,1.7c-7.6,16.9-15.1,33.9-22.7,50.8c11.4,6.7,22,14.8,31.9,24.3
			c0.4,0.4,0.8,0.8,1.2,1.1c1.8,1.8,3.6,3.6,5.3,5.4c3.1,3.3-0.1,9.2-3.3,7.7c-0.4-0.2-0.7-0.4-1.1-0.8c0,0,0,0,0,0
			c-10.2-10.9-21.2-20.1-33.3-27.6c-0.4-0.2-0.7-0.5-1.1-0.7c-2-1.2-3.9-2.4-5.9-3.5c-0.1-0.1-0.2-0.2-0.4-0.3
			c1,12.1,2.2,24.1,4.3,36.1c0.1,1.9,0.9,3.8,2.4,4.7c1.5,1,3.4,1,4.8,0.1c10.7-1.8,21.4-3.6,32.1-5.4c3.1-0.5,4.5-4.2,3.5-7.5
			c-8.9-31.6-10.6-66.7-15.2-100.5c-1.4-0.3-2.8-0.7-4.3-1.3C74.4,786.7,74.1,786.5,73.9,786.2z"/>
		<path class="st10" d="M51.7,841.4c6.6-14.8,13.2-29.6,19.9-44.5c-12-11.1-24-22.2-35.9-33.3c-0.2-0.2-0.5-0.4-0.7-0.7
			c-0.3-0.3-0.6-0.6-0.8-1c-0.1-0.1-0.1-0.2-0.2-0.3c0,0,0,0,0,0c3.7,13.3,6.5,27,8.2,41c2.1,16.7,3.1,33.6,4.3,50.4
			c1.5-3.3,2.9-6.6,4.4-9.9C51.2,842.6,51.5,842,51.7,841.4z"/>
		<path class="st10" d="M32.6,752.4c0.2-0.8,0.4-1.5,0.7-2.3c-0.5-0.1-1-0.3-1.4-0.4c-0.4-0.1-0.8-0.3-1.2-0.5
			c-0.2-0.1-0.4-0.2-0.5-0.3c0.6,1.9,1.2,3.9,1.8,5.8c0-0.1,0.1-0.3,0.1-0.4C32.2,753.7,32.4,753,32.6,752.4z"/>
		<path class="st10" d="M26.7,731.1c0-2.7,0.1-5.3,0.2-7.7c0-0.6,0.1-1.1,0.1-1.6c0.1-1.5,0.2-2.9,0.4-4.3c-0.1,0.2-0.1,0.3-0.2,0.5
			c-0.1,1.6-0.2,2.9-0.6,3.5c-0.5,0.9-1,1.5-1.5,1.9c-0.1,0.1-0.2,0.1-0.2,0.2c0,0.1-0.1,0.3-0.1,0.4c0,0,0,0,0,0
			c-0.1,0.4-0.5,0.6-0.8,0.7c-0.1,0-0.1,0-0.2,0c-0.2,0.2-0.5,0.5-0.7,0.8c-0.4,0.5-0.7,1-0.9,1.4c1.9,4.5,3.6,9,5.2,13.6
			c-0.2-1.7-0.4-3.4-0.5-5.2C26.8,733.9,26.7,732.5,26.7,731.1z"/>
		<path class="st11" d="M19,648.5c0.6-0.6,0.4-1.4,0.1-2.2c-0.1,1-0.5,1.9-1,2.7C18.5,648.9,18.8,648.7,19,648.5z"/>
		<path class="st11" d="M4.8,751.5c0.4-1.1,0.9-2.3,1.4-3.5c0.3-0.8,0.7-1.7,1-2.5c0.2-0.5,0.4-0.9,0.6-1.4c0-0.1,0.1-0.2,0.1-0.3
			c-0.1-0.1-0.2-0.2-0.3-0.3c-1.3-1.4-2-3.4-1.8-5.5c0.1-0.9,0.3-1.8,0.7-2.7c1.2-2.7,3.6-3.6,5.7-5c0.1-0.1,0.2-0.1,0.3-0.2
			c1.2-0.8,2.3-1.5,3.2-2.3c1.4-1.2,2.5-2.5,3.7-4.4c0.2-0.4,0.5-0.8,0.7-1.2c0.1-0.2,0.2-0.3,0.3-0.5c0.3-0.6,1.6-0.5,1.8-1
			c0.1-0.4,0.3-0.7,0.4-1.1c0.2-0.7,0.4-1.3,0.5-2c0.4-2.6,0.3-5.2,0.5-7.9c0-0.4,0.1-0.8,0.1-1.3c0.6-4.8,2-9.2,3.3-13.7
			c0.7-2.2,1.2-4.2,1.6-6.3c2.2-11.3,0.4-21.2-3.3-31.7c-1.3-1.7-2.5-3.4-3.6-4.9c-1.5,1.2-3.8,1.7-5.8,2c2,3.9,2.2,8.2,1.1,11.8
			c0.2,1.7,0.4,3.3,0.7,5c0.2,1.3-0.6,2.2-1.5,2.4c-2.6,0.8-5.2,1.6-7.8,2.3c0.9,1.2,1.9,2.4,2.8,3.7c0.4,0.5,0.5,1.5,0.3,2.2
			c-2.7,6.6-5.9,12.7-9.5,18.6c-0.4,0.7-1.2,1-1.9,0.8v12.4v10.5v32.7v1.7v4.5v1.5c0.2-0.5,0.4-1,0.6-1.6
			C2,758.8,3.4,755.2,4.8,751.5z"/>
		<path class="st12" d="M3.5,675.4c-1-1.3,0-3.1,1.2-3.5c3-0.9,7.5-0.9,8.9-4.4c1-2.4-1.5-11.4-1.9-14.2c-0.1-0.9,0.2-1.5,0.6-1.9
			c0-0.3,0.1-0.5,0.2-0.7c0.1-0.2,0.2-0.3,0.3-0.5c0.2-0.3,0.6-0.5,1-0.6c0.9-0.1,2.9-0.2,4.2-0.7c0.5-0.8,0.8-1.7,1-2.7
			c-0.1-0.2-0.2-0.4-0.3-0.5c-1.3,0.4-2.5,0.4-3.8,0.7c-0.3,0.1-0.6,0.1-0.9,0.2c-4.5,1.5-3.3,3-6.4,5.4c-1.5,1.1-3.1,1.1-4.7,1.4
			c-1,0.1-2,0.2-3,0.3v19.5v21.5c0.3-0.1,0.5-0.3,0.8-0.5C6.1,689.9,7.8,680.9,3.5,675.4z"/>
		<path class="st12" d="M15.9,653.8c-0.1,0-0.3,0-0.4,0.1c0.5,3.9,1,7.8,1.5,11.7C18.1,661.9,17.9,657.6,15.9,653.8z"/>
		<path class="st13" d="M2.2,768.3c0.9-2.1,1.7-4.1,2.5-6.2c1.1-2.9,2.2-5.8,3.3-8.6c0-0.4,0.1-0.8,0.2-1.2c0-0.1,0.1-0.3,0.1-0.4
			c0.1-0.4,0.2-0.8,0.3-1.1c0-0.1,0-0.1,0.1-0.2c0.3-0.9,0.7-1.9,1-2.8c0-0.1,0.1-0.2,0.1-0.2c0.1-0.2,0.1-0.4,0.2-0.6
			c0.1-0.3,0.2-0.6,0.3-0.9c0.1-0.5,0.2-1,0.3-1.6c0-0.1,0-0.3,0.1-0.4c0.1-1,0.3-2,0.5-3c0,0,0,0-0.1-0.1c0.5-2.1,1-4.1,1.6-6.2
			c1.1-0.5,2.2-1,3.3-1.6c1.1-0.8,2.4-1.2,3.4-2.1c1.5-1.3,2-2.7,2.9-4.2c0.3-0.5,0.6-0.9,0.9-1.4c0.3-0.3,0.5-0.6,0.7-0.8
			c0.1,0,0.1,0,0.2,0c0.3,0,0.7-0.2,0.8-0.7c0,0,0,0,0,0c0-0.1,0.1-0.3,0.1-0.4c0.1-0.1,0.2-0.1,0.2-0.2c0.5-0.4,1-1,1.5-1.9
			c0.3-0.6,0.5-2,0.6-3.5c0.1-0.2,0.1-0.3,0.2-0.5c-0.2,1.4-0.3,2.9-0.4,4.3c0,0.5-0.1,1.1-0.1,1.6c-0.1,2.4-0.2,5-0.2,7.7
			c0,1.4,0,2.8,0.1,4.2c0.1,1.8,0.2,3.5,0.5,5.2c0.2,1.7,0.5,3.3,0.9,4.8c0.6,2,1.1,3,1.9,3.6c0.2,0.1,0.3,0.2,0.5,0.3
			c0.3,0.2,0.7,0.3,1.2,0.5c0.4,0.1,0.9,0.3,1.4,0.4c0,0,0.1,0,0.1,0c1.2,0.3,1.9-1,1.8-2.1c0.7-0.9,1.4-1.8,2.1-2.7
			c1.1-1.3,2.2-2.6,3.4-3.9c2.8-3,5.8-5.8,8.8-8.7c1-1,2.1-2.1,3.1-3.1c0.7-0.7,1.4-1.5,2-2.2c0,0,0,0,0,0c0,0,0,0,0,0
			c0.3-0.3,0.5-0.6,0.8-0.9c0.8-1,1.6-2,2.4-3c0,0,0.1-0.1,0.1-0.1c0.2-0.3,0.5-0.6,0.7-1c0.1-0.2,0.3-0.4,0.4-0.6
			c0.6,0.5,1.1,1.1,1.7,1.6c0.5,0.5,1,0.9,1.5,1.3c-0.8,1.4-1.4,2.8-2,4.2c-0.2,0.5-0.4,1.1-0.6,1.7c-0.5,1.3-0.9,2.6-1.2,4
			c-1.5,7-0.9,14.2,0.1,21.2c0.2,1.3,0.4,2.6,0.6,3.8c0,0.2,0.1,0.3,0.1,0.5c0.1,0.4,0.1,0.8,0.2,1.3c0.2,1.4,1.8,1.5,2.5,0.7
			c0.1-0.1,0.1-0.1,0.2-0.2c0.8-0.9,1.7-1.7,2.7-2.5c0.5-0.3,0.9-0.7,1.4-1c0.1,0,0.1-0.1,0.2-0.1c0.3-0.2,0.6-0.4,0.9-0.5
			c1.9-1.1,4-1.9,6.1-2.2c1.1-0.2,2.1-0.2,3.1-0.2c0.4,0,0.8,0.1,1.2,0.1c0.2,0,0.3,0,0.5,0.1c-0.4,1.1-0.8,2.1-1.1,3.2
			c-0.6,2.1-1.2,4.1-1.7,6.2c-1.4,6.3-2,12.8-1.8,19.5c0,0.2,0,0.3,0,0.5c0,0.4,0.1,0.7,0.3,1c0.2,0.3,0.5,0.5,0.8,0.7
			c1.4,0.6,2.9,1.1,4.3,1.3c9.9,1.8,18.7-5.2,26.5-13.6c0.3-0.3,0.7-0.7,1-1.1c2.8-3.1,5.6-6.4,8.1-9.4c0.1-0.3,0.3-0.7,0.5-1
			c0,0,0.1-0.1,0.1-0.1c0.2-0.3,0.4-0.6,0.6-0.9c0,0,0,0,0,0c0.5-0.6,1-1.2,1.5-1.8c0-0.1,0.1-0.1,0.1-0.2c0.1-0.1,0.2-0.2,0.3-0.4
			c0.1-0.2,0.3-0.4,0.4-0.6c0.2-0.3,0.4-0.7,0.6-1.1c0.1-0.1,0.1-0.2,0.2-0.3c0.1-0.2,0.2-0.4,0.3-0.6c0.3-0.5,0.5-1.1,0.8-1.6
			c0,0,0,0,0-0.1c0.9-1.4,1.8-2.8,2.7-4.2c1,0,2,0,3-0.1c1-0.2,2.1-0.1,3.1-0.4c1.5-0.5,2.2-1.4,3.3-2.3c0.3-0.3,0.7-0.5,1.1-0.8
			c0.3-0.2,0.5-0.3,0.8-0.4c0,0,0,0,0.1,0c0.3,0.2,0.7,0.2,0.9-0.2c0,0,0.1-0.1,0.1-0.1c0,0,0.1-0.1,0.1-0.1c0.6-0.2,1.1-0.4,1.9-1
			c0.4-0.4,0.9-1.4,1.3-2.6c0.3-0.3,0.5-0.6,0.8-0.9c0,0,0,0,0-0.1c1-2.6,2.7-4.8,4.4-7c0.2-0.2,0.4-0.5,0.6-0.7
			c0.3-0.4,0.7-0.8,1-1.2c0,0,0.1-0.1,0.1-0.1c0.2-0.3,0.5-0.6,0.7-0.8c1.2-1.5,2.4-3,3.4-4.5c0.7-1.2,1.8-0.6,2.3,0.4
			c0.2,0.4,0.3,0.8,0.3,1.2c-0.1,0.8,0,1.6,0,2.4c0.1,0.2,0.1,0.4,0.2,0.6c0,0.1,0,0.1,0.1,0.2c0.1,0,0.2-0.1,0.3-0.2
			c0.1-0.1,0.2-0.2,0.2-0.4c0.1-0.5,0.2-1.1,0.4-1.6c0.1-0.1,0.1-0.2,0.1-0.3c0-0.2,0-0.3,0.1-0.4c0-0.1,0-0.1,0-0.2
			c0.2,0.1,0.3,0.1,0.5,0.1c0.1,0.7,0.2,1.3,0.3,2c0,0.1,0,0.2,0,0.2c0,0.2,0,0.4,0.1,0.6c0,0.3,0,0.6,0.1,0.9c0,0,0,0.1,0,0.1
			c0,0.4,0.1,0.8,0.2,1.2c0.1,0.3,0.1,0.6,0.2,0.9c0.2,0.7,0.3,1.5,0.6,2.2c0.1,0.6,0.2,1.2,0.4,1.8c1.2,5.4,3,10.4,5.2,15.1
			c0.1,0.1,0.1,0.2,0.2,0.3c0.2,0.5,0.5,1,0.7,1.5c0.8,1.7,1.7,3.4,2.7,5.1c0.2,0.6,0.5,1.2,0.8,1.7c0.1,0.3,0.2,0.5,0.4,0.8
			c0.1,0.3,0.4,0.4,0.6,0.4c0.1,0.2,0.2,0.3,0.3,0.5c2.6,4.2,5.1,8.5,7,13.2c1,2.4,1.9,4.8,2.8,7.2c0.7,1.7,1.3,4.6,2.5,5.8
			c2.9,2.9,5.8-6.3,7.2-11c1.1-1.8,2.8-3.9,2.3-6.3c-0.4-1.8-0.7-3.1,0.1-5c0.7-1.8,1.8-3.5,2.7-5.2c0.2-0.3,0.2-0.6,0.2-0.9
			c0.8,0.6,1.7,1.1,2.6,1.5c-1.3,2.7-3,5.5-3.6,8.4c-0.1,0.3,0,0.7,0.2,0.9c2.3,2.4,5.8,3.6,8.6,5.3c3.1,1.9,6.1,4,9.1,6.2
			c-0.1,0.2-0.3,0.3-0.4,0.5c-0.3,0.4-0.6,0.7-0.9,1.1c-0.3,0.3-0.5,0.7-0.7,1.1c-0.3,0.5-0.2,1.4,0.4,1.5c5.2,1,9.8,4,14.5,6.6
			c4,2.2,9,3,12.6,6.2c0.4,0.1,0.8,0.2,1.2,0.2c0.2,0,0.4,0,0.6-0.1c1.1-0.6,2.2-1.2,3.3-1.8c0.3-0.3,0.7-0.5,1-0.7
			c1.2-0.8,2-1.7,2.6-2.9c-0.1-9.2-2.1-18.3-4.5-27c-0.5-1.7-1-3.4-1.8-5c-0.4-0.9-1-1.8-1.4-2.8c-0.4-1.4,0-2.4-0.2-3.9
			c-0.4-2.9-4.3-2.6-3.9-5.1c0,0,0,0,0,0c2.7,2,5.3,4,6.9,5.3c0.1,0.3,0.2,0.6,0.4,0.9c0.6,0.7,1.2,1.4,1.7,2.1
			c1.2,1.5,3.2-0.6,2.3-2.3c0,0,0-0.1,0-0.1c0.1-0.3,0.1-0.6,0-1c-0.7-2-1.3-4.1-2-6.3c-2.8-9.2-5.6-19.1-9.3-28.3
			c-3.4-8.4-7.6-16-13.4-21.8c-0.4-0.4-0.9-0.9-1.4-1.3c-1.1-1.4-2.2-2.8-3.4-4.1c3.7-0.8,6.9-2.8,9.7-5.6c0.2,0.7,0.4,1.4,0.6,2
			c0,0.1,0,0.2,0.1,0.3c0,0.1,0.1,0.2,0.1,0.3c0.7,2.3,1.4,4.5,2.2,6.7c0,0,0,0.1,0,0.1c0,0.6,0.3,1,0.6,1.3
			c0.3,0.5,0.8,0.7,1.2,0.6c3.9,1.5,8.3,3.6,12.4,3.6c1.7,0,2.8-0.7,3.8-1.6c0.7-0.5,1.4-1.2,2.2-1.7c0,0.1,0,0.1,0,0.2
			c0.4,5,0.8,13.9,3.2,15.9c2.8,2.4,2.9-0.6,5.2-0.8c1.6-0.2,2.6,0.3,3.3,1.1c0.4,0.4,0.6,0.9,0.8,1.5c0,0.1,0.1,0.2,0.1,0.3
			c0.2,0.6,0.3,1.3,0.5,2.1c0,0.2,0.1,0.4,0.1,0.6c0.3,2.3,0.6,4.7,1.7,6.4c2.7,4.1,8,6.5,11.7,9.1c1.1,0.8,2-0.3,2.1-1.4
			c0.6,0,1.2-0.4,1.4-1.3c0.2-0.6,0.3-1.2,0.4-1.8c0.8-3.5,1.1-7.2,1-11c-0.1-3.4-0.4-6.8-0.9-10.1c-0.3-2.4-0.7-4.7-1.2-7
			c-0.4-2.1-0.8-4.1-1.2-6c-0.4-2-0.9-4.4-1.4-7c0.2-0.5,0.2-1-0.1-1.5c-0.2-0.4-0.4-0.8-0.6-1.2c-1.5-5.8-3.6-11.7-7.1-14.6
			c-3.3-4.7-7.1-8.7-11.4-12.1c-0.8-0.7-1.5-1.4-2.3-2c-1.1-1-2.2-1.6-3.3-2c-11.3-7.2-24.5-10.7-37-11.1c-5.2-0.2-9.8,0.9-14.7,2.2
			c-5.2,1.4-9.8,1.4-14.7,3.4c-0.7,0.3-1.4,0.6-2.1,1c-9.3,5-17.6,11.9-25.2,19.9c0,0-0.1,0.1-0.1,0.1c-0.7-1.5-1.7-2.9-3-4.3
			c-5.5-5.7-12-10.2-18-15.1c0,0,0-0.1-0.1-0.1c-1.6-1.4-3.3-2.6-5.1-3.6c-1.8-2.1-3.5-4.2-5.4-6.1c-6.2-6.6-13-12.1-20.7-15.3
			c-0.6-0.3-1.3-0.5-2-0.8c-1.7-1-3.5-2.1-5.3-2.9c3.9-2.8,6.8-6.7,9-11.3c0.5,0.7,0.9,1.3,1.4,2c0.1,0.1,0.1,0.2,0.2,0.4
			c0.1,0.1,0.2,0.2,0.3,0.3c1.6,2.2,3.2,4.4,4.9,6.4c0,0,0,0.1,0.1,0.1c0.2,0.6,0.7,1,1.1,1.2c0.5,0.4,1.1,0.4,1.6,0.1
			c4.9-0.4,10.7-0.2,15.3-2.3c1.9-0.9,2.9-2.3,3.8-3.8c0.6-1,1.1-2,1.9-3c0,0.1,0.1,0.1,0.1,0.2c2.2,5.4,5.9,15.3,9.3,16.4
			c4,1.3,3.1-2.1,5.6-3.6c1.7-1,3.1-1,4.1-0.4c1.2,0.7,2.1,2.1,3,3.8c1.3,2.5,2.5,5.5,4.5,7c4.5,3.2,11.4,3.2,16.4,4.3
			c1.5,0.3,2.2-1.3,1.9-2.7c0.7-0.4,1.2-1.1,1.2-2.2c0-0.8-0.1-1.5-0.1-2.3c-0.9-11.2-5.9-21.7-11.2-31.2c-1-1.9-2.1-3.7-3.1-5.5
			c-0.1-0.2-0.3-0.5-0.4-0.7c-1.2-2-2.5-4.5-4.1-7.1c0-0.6-0.2-1.2-0.6-1.7c-0.3-0.4-0.7-0.7-1.1-1c-0.2-0.3-0.3-0.5-0.5-0.8
			c-3.6-5.5-8-10.6-12.7-12c-5.4-3.6-11.1-6.1-17.1-7.8c-1.1-0.4-2.2-0.8-3.4-1.1c-1.6-0.5-3.1-0.6-4.4-0.6
			c-15.3-2.4-31.5,0.4-45.7,6.4c-5.9,2.4-10.7,6-15.9,10c-2.5,2-4.9,3.5-7.3,5.1c-3.5,2.3-6.9,4.7-10.1,8.5
			c-1.3,1.6-2.6,3.2-3.9,4.9c-6.9,9.2-12.7,19.5-17.5,30.5c0,0.1,0,0.1-0.1,0.2c-1.3-1.3-2.9-2.4-4.9-3.3C10,628.6,5,627.1,0,625.7
			v1.7v2.8c1.7,0.5,3.3,0.9,5,1.4c3.1,0.9,6.6,1.7,9.6,3.4c0.4,0.2,0.7,0.4,1.1,0.7c0.5,0.1,1.1,0.2,1.6,0.2c1,0.1,1.4,0.9,1.5,1.8
			c-0.2,0.6-0.3,1.1-0.4,1.7c-0.1,0.1-0.1,0.2-0.2,0.3c-0.3,0.4-0.8,0.6-1.4,0.5c-0.1,0-0.2,0-0.4,0c-0.5-0.1-1.1-0.2-1.6-0.2
			c-0.8-0.1-1.5-0.2-2.2-0.3c-1.1-0.1-2-0.1-3,0.2c-0.2,0-0.4,0.1-0.5,0.2c-0.3,0.1-0.6,0.3-0.9,0.4c-0.8,0.4-1.6,1.1-2.5,2
			c-0.9,1-1.3,1.9-2.1,2.8c-0.3,0.3-0.7,0.7-1.2,0.9c-0.8,0.4-1.6,0.8-2.4,1.1v6.3c1-0.1,1.9-0.2,3-0.3c1.7-0.2,3.3-0.3,4.7-1.4
			c3.1-2.3,1.9-3.9,6.4-5.4c0.3-0.1,0.6-0.2,0.9-0.2c1.3-0.3,2.5-0.3,3.8-0.7c0.1,0.2,0.2,0.3,0.3,0.5c0.4,0.8,0.5,1.6-0.1,2.2
			c-0.2,0.2-0.5,0.4-0.9,0.5c-1.3,0.5-3.3,0.6-4.2,0.7c-0.5,0.1-0.8,0.3-1,0.6c-0.1,0.1-0.2,0.3-0.3,0.5c-0.1,0.2-0.1,0.5-0.2,0.7
			c-0.4,0.4-0.7,1-0.6,1.9c0.4,2.7,2.9,11.8,1.9,14.2c-1.4,3.5-5.9,3.5-8.9,4.4c-1.2,0.4-2.2,2.2-1.2,3.5c4.3,5.6,2.6,14.5-2.7,18.9
			c-0.3,0.2-0.5,0.4-0.8,0.5v0.3v5.4c0.7,0.2,1.5,0,1.9-0.8c3.6-5.9,6.7-12.1,9.5-18.6c0.3-0.6,0.2-1.6-0.3-2.2
			c-0.9-1.2-1.9-2.4-2.8-3.7c2.6-0.8,5.2-1.6,7.8-2.3c0.9-0.3,1.7-1.2,1.5-2.4c-0.2-1.7-0.4-3.3-0.7-5c-0.5-3.9-1-7.8-1.5-11.7
			c0.1,0,0.3,0,0.4-0.1c2-0.3,4.3-0.7,5.8-2c1.2,1.6,2.4,3.2,3.6,4.9c3.7,10.5,5.5,20.4,3.3,31.7c-0.4,2-0.9,4.1-1.6,6.3
			c-1.4,4.6-2.8,8.9-3.3,13.7c-0.1,0.4-0.1,0.8-0.1,1.3c-0.2,2.7-0.1,5.3-0.5,7.9c-0.1,0.7-0.3,1.3-0.5,2c-0.1,0.4-0.2,0.7-0.4,1.1
			c-0.2,0.5-1.4,0.4-1.8,1c-0.1,0.2-0.2,0.3-0.3,0.5c-0.2,0.4-0.5,0.8-0.7,1.2c-1.1,1.9-2.3,3.2-3.7,4.4c-0.9,0.8-1.9,1.5-3.2,2.3
			c-0.1,0.1-0.2,0.1-0.3,0.2c-2.1,1.3-4.5,2.2-5.7,5c-0.4,0.9-0.6,1.8-0.7,2.7c-0.2,2.1,0.5,4.1,1.8,5.5c0.1,0.1,0.2,0.2,0.3,0.3
			c0,0.1-0.1,0.2-0.1,0.3c-0.2,0.5-0.4,0.9-0.6,1.4c-0.4,0.8-0.7,1.7-1,2.5c-0.5,1.2-0.9,2.3-1.4,3.5c-1.4,3.6-2.7,7.2-4.1,10.8
			c-0.2,0.5-0.4,1-0.6,1.6v8.7v0.7c0.5-1.1,1-2.1,1.4-3.2C1.7,769.5,1.9,768.9,2.2,768.3z M142.2,668.6c2.2,1.8,4.7,3.7,6.6,6
			c0.2,0.3,0.5,0.6,0.7,0.9c0.4,0.3,0.8,0.5,1.2,0.8c0.7,0.4,0.9,1.2,0.7,1.9c-0.2,0.4-0.5,0.7-0.7,1.1c-0.1,0.1-0.2,0.1-0.3,0.2
			c-0.4,0.2-0.8,0.2-1.2-0.1c-0.1-0.1-0.2-0.1-0.3-0.2c-0.3-0.2-0.6-0.4-0.9-0.6c-0.7-0.5-1.4-0.9-2.1-1.3c-0.3-0.2-0.6-0.3-0.9-0.4
			c-0.3-0.1-0.6-0.2-0.9-0.3c-0.1,0-0.3-0.1-0.4-0.1c-0.1,0-0.3,0-0.5-0.1c-0.2,0-0.4,0-0.6,0c-0.1,0-0.2,0-0.2,0
			c-0.3,0-0.6,0.1-0.8,0.1c-0.4,0.1-0.8,0.2-1.3,0.4c-0.1,0-0.2,0.1-0.3,0.1c-0.8,0.4-1.3,0.9-2,1.3c-0.1,0.1-0.2,0.1-0.3,0.2
			c-0.3,0.2-0.7,0.3-1.1,0.3c-1,0.1-2.1,0-3.2-0.2c-0.6-0.1-1.3-0.3-1.9-0.5c-0.9-0.3-1.8-0.6-2.7-0.9c-0.8-0.3-1.5-0.6-2.2-0.9
			c-0.2-0.1-0.4-0.2-0.7-0.3c-0.6-0.2-1.1-0.5-1.7-0.7c-1.1-0.5-2.2-0.9-3.2-1.3c-0.6,0.3-1.1,0.8-1.4,1.5c-0.4,0.8-0.6,1.9-0.4,2.8
			c0,0.1,0,0.2,0.1,0.3c0,0.1,0.1,0.2,0.1,0.3c0,0.1,0.1,0.3,0.2,0.4c0.7,1.4,1.4,2.8,2.2,4.2c-4.4,2.2-11.5-4.1-17.5-5.2
			c-1.6-0.3-3.1-0.2-4.5,0.5c-2.4,1.2-4.5,3.5-5.3,6.6c-0.1,0.2-0.1,0.5-0.1,0.8c0,0.9,0.1,2,0.3,3.1c-1.8-0.7-3.6-1-5.5-0.2
			c-2.2,0.9-3,3.1-3.9,4.8c-0.5,1-1.1,1.9-2,2.3c-0.6,0.2-1.1,0.3-1.6,0.3c-0.6,0-1.2-0.1-1.7-0.2c-1.4-0.2-2.7-0.4-4.4,1
			c-0.2,0.2-0.5,0.4-0.7,0.6c-0.2,0.2-0.4,0.4-0.5,0.6c-0.2,0.3-0.4,0.6-0.6,0.9c-0.4,0.7-0.8,1.4-1,2.2c-0.9,2.5-1.2,5.4-1.8,8.1
			c-0.1,0.4-0.2,0.8-0.3,1.2c0,0.1,0,0.2-0.1,0.3c-0.2,0.6-0.2,1.2-0.1,1.7c-2.3-1.9-4.6-3.2-7.3-4.1c-0.1,0-0.3-0.1-0.4-0.1
			c-0.7,0-1.2,0.7-1.4,1.4c-0.4,1.5-1,2.9-1.6,4.2c-0.1,0.2-0.2,0.4-0.3,0.6c0,0.1-0.1,0.1-0.1,0.2c0,0.1-0.1,0.1-0.1,0.2
			c-0.2,0.3-0.3,0.6-0.5,0.9c-0.4,0.7-0.8,1.3-1.2,2c-0.2,0.4-0.5,0.7-0.8,1.1c0,0-0.1,0.1-0.1,0.1c-0.9,1.2-1.8,2.3-2.8,3.4
			c0,0-0.1,0.1-0.1,0.1c-0.1,0.1-0.2,0.2-0.3,0.4c-0.1,0.2-0.3,0.3-0.4,0.5c-0.2,0.2-0.4,0.4-0.5,0.6c-0.7,0.7-1.3,1.3-2,2
			c-2,1.9-4,3.7-5.9,5.6c-1.4,1.4-2.8,2.9-4.1,4.4c-0.6,0.7-1.2,1.3-1.8,2c-0.5,0.5-0.9,1.1-1.4,1.7c-0.1,0.1-0.1,0.1-0.2,0.2
			c-0.6,0.8-1.3,1.6-1.9,2.4c-0.8,1.1-1.6,2.1-2.3,3.2c-0.7-0.7-1.2-1.7-1.6-3c-1-3.4-1.1-8.2-1.2-11.2c0-0.1,0-0.2,0-0.3
			c0,0,0,0,0-0.1c0-0.4,0-0.7,0-1c-0.1-2.3-0.1-4.6,0-6.9c0-0.6,0-1.1,0.1-1.7c0.2-2.8,0.5-5.6,1.1-8.3c0.3-1.4,0.6-2.8,1-4.1
			c0.7-2.5,1.6-4.9,2.6-7.2c0.6-1.4,1.3-2.8,2-4.2c0.1-0.1,0.1-0.2,0.2-0.4c0.3-0.5,0.6-1.1,0.9-1.6c0.8-1.3,1.6-2.6,2.5-3.8
			c0.2-0.3,0.4-0.6,0.7-0.9c0,0,0.1-0.1,0.1-0.1c0.7-0.9,1.4-1.9,2.2-2.7c0.2-0.2,0.3-0.4,0.5-0.6c0.4,0,0.9-0.3,1.1-0.9
			c0.5-1.1,1-2.1,1.5-3.1c0.1-0.1,0.2-0.3,0.3-0.4c0.4-0.7,0.8-1.3,1.2-2c0.2-0.3,0.4-0.5,0.5-0.8c0.3-0.4,0.6-0.8,0.9-1.2
			c3.6-4.6,8.1-8.3,12.4-12c1.1-1,2.2-1.9,3.3-2.8c1.1-0.9,2.3-1.8,3.4-2.6c0.1,0,0.1-0.1,0.2-0.1c0.2-0.1,0.3-0.2,0.5-0.4
			c0.6-0.4,1.1-0.8,1.7-1.2c0.2-0.2,0.5-0.3,0.7-0.5c0.5-0.3,1-0.6,1.4-0.9c2.8-1.7,5.8-3.2,8.9-4.3c4.1-1.4,8.3-2.1,12.6-2.5
			c3.4-0.3,6.8-0.3,10.2-0.3c6.3,0,12.6,0.1,18.4,2.5c1.2,0.5,2.3,1.1,3.5,1.8c0.4,0.3,0.9,0.6,1.3,0.9c0.7,0.5,1.3,1,2,1.6
			c0.1,0.1,0.1,0.1,0.2,0.1c0.1,0.1,0.2,0.3,0.3,0.4c0,0,0,0,0.1,0c1.4,1.1,2.8,2.2,4.2,3.4C137.2,664.5,139.7,666.5,142.2,668.6z
			 M160.7,746.4c-1.7-3.4-3.2-6.9-4.2-10.7c-0.1-0.5-0.2-1-0.3-1.5c0,0,0,0,0,0c-0.1-0.3-0.1-0.6-0.2-0.9c0,0,0-0.1,0-0.1
			c-0.1-0.4-0.2-0.8-0.2-1.2c0-0.2-0.1-0.3-0.1-0.5c0-1.4,0.1-2.7,0-4.1c0-0.7-0.1-1.5-0.2-2.2c-0.1-0.6-0.2-1.2-0.3-1.8
			c-0.3-1.3-0.6-2.6-0.9-3.9c-0.1-0.7-0.1-1.4-0.1-2.1c0-0.2,0-0.5,0-0.7c0.1-0.2,0.2-0.3,0.2-0.5c0.2-1,0.3-2,0.5-3
			c0-0.3,0.1-0.6,0.1-1c1.2,3.5,2.8,6.6,4.8,9c0.1,0.1,0.2,0.2,0.3,0.3c0.5,0.6,1.1,1.2,1.8,1.7c0.1,0.1,0.2,0.2,0.3,0.3
			c0.1,0.1,0.3,0.2,0.4,0.3c1.5,1,3.2,1.7,5.2,2c0.2,1.7,1,2.8,2.7,3.6c2.4,1.1,4.7-1.4,5.1,2.9c0.1,0.6-0.1,1.4-0.4,2.2
			c-0.7,1-1.3,1.7-0.8,3.2c0,0.1,0.1,0.2,0.1,0.2c0,0,0,0.1,0,0.1c0.2,4.3,2,8.6,5,10.8c2.2,1.6,4.8,1.5,7.2,2.3
			c2.3,0.8,2-1.1,2.3,1.4c0,0.3,0,0.9-0.2,1.5c-0.5,1.9-1.6,4.6-1.8,5.4c-0.4,1.3,0.5,2.1,1.4,2.1c-1,1.6-1.7,2.9-2.3,4.3
			c-0.4,0.7-0.7,1.4-1,2.1c0,0,0,0.1-0.1,0.1c-0.4,0.9-0.7,1.8-0.8,2.8c-0.2,1,0,1.9,0.2,2.9c0.6,2.2,0.3,2.3-1,4.4
			c-0.5,0.9-0.3,1.8,0.1,2.4c-0.1,0.1-0.1,0.2-0.2,0.3c-1.1,2.3-2.2,4.7-3.1,7.2c-0.1,0.2-0.2,0.4-0.2,0.6c-1.2-2.3-2.1-4.8-3.1-7.3
			c-0.9-2-1.8-4-2.8-6c-0.1-0.1-0.1-0.2-0.2-0.4c-0.8-1.5-1.5-3-2.3-4.6c-2.1-4.3-4.1-8.7-5.9-13.2c0,0,0,0,0.1,0
			c0.4-0.2,0.6-0.7,0.3-1.2c0.2-0.3,0.2-0.6,0-0.9c0,0,0,0,0,0c-0.9-1.3-1.8-2.7-2.7-4.1c-0.2-0.3-0.4-0.6-0.6-0.9
			c-0.3-0.9-0.7-1.8-1-2.6c-0.2-0.5-0.6-0.6-0.9-0.5C160.8,746.6,160.7,746.5,160.7,746.4z M143.7,685.7c-0.1,0.1-0.2,0.2-0.3,0.3
			c-0.1,0.1-0.2,0.3-0.3,0.5c-0.4,0.2-0.8,0.5-0.9,1.2c-0.1,0.5-0.2,1.2-0.2,2.1c-0.1,0.6-0.1,1.3-0.2,2c0,0.4-0.1,0.7-0.1,1.1
			c-0.1,1-0.2,2-0.4,2.9c-0.1,0.4-0.1,0.8-0.2,1.1c-0.2,1.1-0.5,2-0.9,2.4c-2,2.2-5.4,0.6-8,0.3c-1-0.1-2.2,0.9-1.8,2.3
			c2,5.8-1.6,12.1-6.7,13.7c-0.7,0.2-1.4,0.2-2,0c-1.3-0.4-2.5-1.3-4.1-1.3c-0.5,0-1,0-1.4,0.1c-0.5,0.1-0.9,0.2-1.3,0.4
			c-1.7,0.8-3,2.3-3.9,4.2c-0.2,0.5-0.5,1-0.6,1.6c-2.1-0.9-4.5-1.6-6.6-0.6c-1.9,0.9-2.5,2.1-2.8,3.5c0,0.1,0,0.2-0.1,0.3
			c0,0.2-0.1,0.4-0.1,0.7c0,0.1,0,0.3,0,0.4c0,0.4-0.1,0.8-0.1,1.3c0,0.2,0,0.5-0.1,0.7c0,0.3-0.1,0.7-0.1,1
			c-1.1,6.5-3.6,7.2-6.5,7.8c-0.2,0-0.5,0.1-0.7,0.1c-0.3,0.1-0.6,0.1-1,0.2c0,0,0,0-0.1,0c-0.4,0.1-0.7,0.2-1.1,0.3
			c-0.9,0.3-1.8,0.8-2.7,1.6c-0.9,0.8-1.6,2.6-2.3,4.6c0,0.1-0.1,0.2-0.1,0.3c0,0.1,0,0.1-0.1,0.2c-0.1,0.2-0.1,0.4-0.2,0.7
			c-0.3,0.9-0.5,1.9-0.8,2.8c-1,3.4-2.2,6.4-4.2,6.4c-0.1,0-0.2,0-0.3,0c-0.2-0.2-0.4-0.3-0.6-0.4c-2.4-0.8-5-0.9-7.5-0.4
			c-2.1,0.4-4.2,1.2-6.1,2.3c-0.3,0.2-0.6,0.3-0.9,0.5c-1.3,0.8-2.6,1.7-3.7,2.8c-0.7-4.3-1.2-8.6-1.3-12.9c0-1.8,0.1-3.6,0.3-5.4
			c0.1-0.8,0.2-1.5,0.3-2.3c0.1-0.7,0.3-1.5,0.5-2.2c0-0.2,0.1-0.3,0.1-0.5c0.7-2.6,1.7-5,2.9-7.2c0,0,0-0.1,0.1-0.1
			c0.5-1,1.1-2,1.8-3c0-0.1,0.1-0.1,0.1-0.2c0.1-0.2,0.2-0.3,0.3-0.5c0-0.1,0.1-0.1,0.1-0.2c0,0,0-0.1,0.1-0.1
			c1.9-2.7,4-5.2,6.2-7.7c0.2,0,0.5,0,0.7-0.1c0.3-0.1,0.7-0.2,1-0.4c0.6-0.4,1.2-1.1,1.4-2.1c1.1-4.1,1.3-7.7,5.4-8.3
			c2-0.3,2.7,1,4.8-0.2c0.6-0.3,1.1-0.8,1.5-1.3c0.1-0.2,0.3-0.3,0.4-0.5c0.2-0.3,0.4-0.7,0.6-1c0.6-1.1,1.2-2.3,1.8-3.1
			c1.1-1.6,2.5-2.2,5.3-0.2c1.4,1,3.3,0.2,4.1-1.5c1.3-2.8-0.1-3.9,0.5-6.4c2.3-9.7,11-1.2,14.6,0.1c4.6,1.7,9.3,1,12.6-3.5
			c0.9-1.2,1.1-3,0.3-4.4c-0.1-0.2-0.2-0.4-0.3-0.6c1.1,0.3,2.1,0.7,3.2,1.1c0.3,0.1,0.6,0.2,1,0.4c0.2,0.1,0.4,0.2,0.6,0.2
			c0.3,0.1,0.6,0.2,1,0.3c0.1,0,0.3,0.1,0.4,0.1c0.4,0.1,0.8,0.3,1.2,0.4c1.3,0.4,2.6,1,4,0.6c0.1,0,0.3-0.1,0.4-0.1
			c0.1,0,0.2-0.1,0.3-0.1c0.9-0.3,1.4-0.7,1.9-1.1c0.2-0.2,0.5-0.3,0.8-0.4c0.1,0,0.1,0,0.2-0.1c0.5-0.2,1.3-0.3,2.4-0.2
			c0.1,0,0.2,0,0.3,0c0,0,0,0,0,0c0.2,0,0.5,0.1,0.7,0.1c0.2,0,0.4,0.1,0.6,0.1c0,0,0.1,0,0.1,0c0.8,0.2,1.6,0.5,2.5,0.6
			c0,0.2,0.1,0.3,0.1,0.5c0.1,0.7,0,1.4-0.6,1.7c-0.2,0.1-0.5,0.1-0.8,0.1c-0.5,0-1.1-0.2-1.6-0.4c-0.7-0.2-1.4-0.5-1.8-0.6
			C144.3,685.5,143.9,685.5,143.7,685.7z M64.6,720.9C64.5,720.9,64.5,720.9,64.6,720.9c-0.5-0.5-0.9-0.9-1.3-1.3
			c0.4-0.4,0.5-1.1-0.1-1.6c0.1-0.4,0-0.8-0.3-1.1c-0.3-0.2-0.5-0.4-0.8-0.6c0.5-1.1,1-2.2,1.4-3.4c1.9,0.8,3.3,1.7,4.9,3
			C67.1,717.5,65.8,719.2,64.6,720.9C64.6,720.9,64.6,720.9,64.6,720.9z M149.1,723.1c0,0,0,0.1,0,0.1
			C149.1,723.2,149,723.2,149.1,723.1C149,723.2,149.1,723.1,149.1,723.1z M202.6,723.1c-0.1-0.1-0.1-0.1-0.2-0.2
			c0-0.1-0.1-0.1-0.1-0.2c-0.3-0.4-0.6-0.8-0.8-1.2c-0.4-0.5-0.3-1.3,0-1.9c0,0,0,0,0,0c-0.3-1-0.6-2.1-0.8-3.2
			c-0.3-1.2-1.4-1.5-2.2-1c0,0,0,0,0,0c-0.2-0.1-0.5-0.2-0.7,0c-3.8,2.2-8.6,0.4-10.8-3.8c0-0.1-0.1-0.1-0.1-0.2
			c-0.1-0.3-0.3-0.4-0.5-0.4c-0.2-0.8-0.5-1.4-0.8-2c-0.1-0.1-0.2-0.3-0.3-0.4c-0.3-0.5-0.7-0.9-1.1-1.2c-2.1-1.7-5.2-2.3-8.4-2.4
			c-1.6,0-3.1,0-4.6,0.1c0,0,0,0,0,0c-1.3,0.1-2.5,0.1-3.6,0.1c-0.5,0-0.9,0-1.3,0c-0.5,0-0.7,0.5-0.7,0.9c-0.1,0-0.3,0-0.4,0
			c-5-0.8-7.6-5.3-9.6-10.3c-0.2-0.5-0.4-1-0.6-1.5c-0.7-2.1-1.4-4.3-2.1-6.3c-0.1-0.3-0.2-0.6-0.3-0.9c-0.1-0.2-0.1-0.4-0.2-0.6
			c-0.1-0.1-0.1-0.3-0.2-0.4c0.1-0.2,0.1-0.3,0.2-0.4c0,0,0,0,0,0c0,0,0,0,0,0c0.1,0.1,0.1,0.1,0.2,0.2c0,0,0.1,0.1,0.1,0.1
			c0.4,0.3,0.7,0.7,1.1,1c0.2,0.2,0.4,0.4,0.7,0.6c0.6,0.5,1.1,1,1.7,1.5c0.6,0.6,1.3,1.1,1.9,1.7c0.9,0.8,1.7,1.7,2.5,2.6
			c0.4,0.5,0.8,1,1.3,1.5c1.8,2,3.7,3.9,6.2,4.3c0.7,0.1,1.3,0.1,1.9,0c1.1-0.2,2-0.6,3.1-1.3c2.6-1.5,2.6-3.2,5.1-2.7
			c0.6,0.1,1.3,0.3,2.3,0.7c0,0,0.1,0,0.1,0c0,0,0,0,0,0c0,0,0,0,0,0c1.4,0.6,2.7,1.8,4,2.9c0.5,0.4,1,0.9,1.5,1.2
			c0.7,0.5,1.6,0,2-0.7c0.6-1.1,1.3-2.1,2-2.8c0.6-0.6,1.2-1.2,1.9-1.6c2.6-1.6,5.7-1.5,8.8-0.4c1.2,0.4,2.3,1,3.5,1.7
			c8.2,4.7,16.4,14.8,19.2,20.4c1.1,2.2,2.1,4.5,3.1,6.8c3.8,9.1,6.7,18.9,9.6,28.4c0.2,0.5,0.3,1.1,0.5,1.6c-0.7-0.5-1.5-1-2.2-1.5
			c-0.1-0.1-0.3-0.2-0.4-0.3c-2.2-1.4-4.6-2.6-6.4-4.7c-1.2-1.5-1.8-3.6-3.2-4.9c-1.9-1.9-3.9-2.3-5.5-0.7
			c-3.2-2.2-9.3-5.2-7.6-10.7c0.3-1.1-0.7-2.3-1.5-2.2c-3.8,0.3-5.8-1.9-7-5C202.7,723.3,202.7,723.2,202.6,723.1z M32.2,689.7
			c0,0,0,0.1,0,0.1C32.3,689.9,32.2,689.8,32.2,689.7C32.2,689.8,32.2,689.8,32.2,689.7z M22.8,646.9c-0.1-0.1-0.2-0.2-0.3-0.3
			c0-0.2,0-0.4,0.1-0.6c0,0,0,0,0,0c0,0,0,0,0,0c0.1,0,0.2,0.1,0.3,0.1c0,0,0.1,0,0.1,0c0.5,0.2,1.1,0.4,1.6,0.6
			c0.3,0.1,0.6,0.2,1,0.3c0.8,0.3,1.6,0.5,2.4,0.8c0.9,0.3,1.8,0.6,2.7,1c1.3,0.5,2.5,1,3.8,1.7c0.6,0.3,1.3,0.7,1.9,1
			c2.7,1.4,5.5,2.5,8.5,1.7c0.8-0.2,1.5-0.5,2.1-0.9c1.1-0.7,2-1.7,3-3c2.4-3,1.8-4.9,4.8-5.7c0.7-0.2,1.6-0.3,2.8-0.4
			c0,0,0.1,0,0.1,0c0,0,0,0,0,0c0,0,0,0,0,0c1.7-0.1,3.7,0.6,5.6,1.2c0.7,0.2,1.5,0.4,2.1,0.6c1,0.2,1.8-0.8,2-1.9
			c0.3-1.6,0.7-3,1.3-4.2c0.5-1,1-1.9,1.6-2.7c2.4-3.1,5.9-4.6,9.9-4.9c1.5-0.1,3-0.1,4.6,0.1c10.9,1.1,23.8,8.3,28.9,13.2
			c0.9,0.8,1.7,1.7,2.6,2.6c0.7,0.7,1.4,1.4,2,2.1c-2.2-0.6-4.5-1-6.8-1.2c-9.7-1.1-19.9,0.4-28,2.7c-4.2,1.2-8.2,3.1-12,5.4
			c-0.6,0.4-1.1,0.7-1.7,1.1c-0.5-0.7-1-1.3-1.6-1.8c-0.1-0.1-0.3-0.2-0.4-0.3c-0.5-0.3-1.1-0.6-1.7-0.8c-3-0.9-6.7,0.1-10.3,1.6
			c-1.8,0.7-3.5,1.6-5.2,2.4c0,0,0,0-0.1,0c-1.4,0.7-2.8,1.4-4,2c-0.5,0.3-1.1,0.5-1.5,0.7c-0.6,0.2-0.7,0.9-0.4,1.4
			c-0.2,0.1-0.3,0.1-0.5,0.2c-6,1.6-10.5-2-14.5-6.7c-0.4-0.5-0.8-0.9-1.2-1.4c-1.6-2-3.1-4.1-4.6-6c-0.2-0.3-0.5-0.6-0.7-0.8
			C23,647.3,22.9,647.1,22.8,646.9z M33.1,663.4c0.3,0,0.5,0.2,0.8,0.4c0.1,0.1,0.2,0.2,0.3,0.3c6.6,4,9.1,2.7,15.9-0.4
			c0.4-0.2,0.8-0.4,1.3-0.5c0.1,0,0.2-0.1,0.2-0.1c0.2-0.1,0.4-0.2,0.6-0.3c0.7-0.8,1.5-1.4,2.3-2c1.1-0.6,2.1-1.2,3.2-1.6
			c1.2-0.4,2.5-0.5,3.9-0.4c1.6,0.2,2.8,0.7,4.1,1.5c-0.1,0.1-0.3,0.2-0.4,0.3c-1.7,1.3-3.3,2.7-4.9,4.1c-3.1,2.7-6.4,5.4-9.3,8.5
			c-1.7,1.8-3.4,3.7-4.8,5.7c-0.8-0.3-1.5-0.7-2.2-1.2c-0.9-0.6-1.7-1.2-2.5-1.9c-2.7-2.6-5.2-5.9-7.4-9.2c-0.7-1-1.4-2-2-2.9
			C32.3,663.3,32.7,663.2,33.1,663.4z M39.6,687.8c-0.9-1.6-1.9-3.2-2.8-4.8c-0.1-0.2-0.1-0.4-0.2-0.5c-0.2-0.6-0.5-1.2-0.7-1.8
			c-0.1-0.3-0.2-0.6-0.2-0.8c0-0.2,0.1-0.4,0-0.7c-0.2-1.6-0.5-3.2-0.7-4.8c1.7,2.1,3.4,4,5.3,5.5c1.1,0.9,2.3,1.7,3.5,2.3
			c-0.3,0.6-0.6,1.2-0.9,1.8c-0.1,0.1-0.1,0.1-0.2,0.2C41.7,685.3,40.6,686.5,39.6,687.8z M34.3,695c0.2-0.9,0.7-1.3,1.3-1.3
			c-0.6,1-1.2,2-1.7,3C34,696.2,34.2,695.6,34.3,695z M104.5,770.8c-0.3,0.3-0.6,0.6-0.9,0.9c-2.9,3-6,5.8-9.7,8.1
			c-3.9,2.4-11.3,7.1-15.6,4.4c-0.8-0.5-1.5-1.2-2-2.3c-1.1-2.1-0.8-6,0.1-10.2c0.3-1.5,0.7-3,1.1-4.5c0.5-1.8,1-3.5,1.5-5.1
			c0.4-1.2,0.8-2.4,1.1-3.4c0.3-0.9,0.6-1.6,0.8-2.2c0.5,0,1,0,1.4-0.2c0.4-0.1,0.8-0.3,1.1-0.5c0.8-0.5,1.5-1.2,2.2-2.3
			c0.9-1.3,1.2-2.5,1.6-4c0-0.2,0.1-0.3,0.1-0.5c0.3-1.1,0.6-2,0.9-2.8c0.1-0.1,0.1-0.3,0.2-0.4c0,0,0-0.1,0-0.1
			c0.1-0.2,0.1-0.3,0.2-0.5c0.6-1.2,1.2-2.2,2.1-3.1c0.2-0.2,0.4-0.3,0.6-0.5c0,0,0,0,0,0c0.3-0.2,0.7-0.5,1.1-0.7
			c0.4-0.2,0.8-0.5,1.3-0.7c0.3-0.2,0.7-0.3,1-0.5c2.9-1.2,5.8-1.1,7.7-4.6c0.6-1,0.9-2.2,1-3.4c0.1-1.4,0-2.8-0.3-4.2
			c0.1-0.2,0.2-0.4,0.3-0.6c0.1-0.2,0.1-0.3,0.2-0.4c0-0.1,0.1-0.2,0.1-0.3c0.2-0.3,0.3-0.6,0.5-0.9c0.1-0.2,0.3-0.4,0.4-0.6
			c0.6-0.7,1.2-1.2,1.8-1.4c0.5-0.2,1.1-0.2,1.7,0c0.6,0.2,1.3,0.5,1.9,1.1c0.9,0.4,1.8,0.1,2.1-1.1c0,0,0-0.1,0-0.1
			c2.9-1.1,5.7-2.2,8.6-3.3c0.5,0.5,1.3,0.7,1.8,0.2c4.3-3.3,8.2-7,11.9-11.1c0.4-0.4,0.5-1.2,0.3-1.8c-0.4-1.3-0.9-2.6-1.3-3.8
			c2.2,0.3,4.4,0.6,6.6,0.9c0.8,0.1,1.6-0.3,1.8-1.4c0.2-1.4,0.5-2.7,0.7-4.1c0-0.1,0-0.2,0-0.2c0.1-0.4,0.1-0.7,0.2-1.1
			c0.1-0.8,0.3-1.6,0.4-2.4c0,0,0-0.1,0-0.1c0.2-0.9,0.3-1.9,0.5-2.8c0.2-1,0.3-2,0.5-3c0.1,0,0.2,0.1,0.3,0.1
			c1.6,0.5,3.5,1,4.9,0.5c0.5,1.6,1.1,3.3,1.6,5.1c0.1,2.5,0.1,4.9-0.1,7.2c0,0.5-0.1,0.9-0.1,1.4c0,0.2,0,0.4-0.1,0.6
			c0,0.4-0.1,0.9-0.1,1.3c0,0.1,0,0.2,0,0.3c-0.8,6.2-2.7,11.9-6.4,17.6c-0.4,0.6-0.8,1.1-1.2,1.7c-1.7,2.4-3.4,4.7-4.8,7.2
			c-0.1,0.3-0.3,0.5-0.4,0.8c0,0.1-0.1,0.1-0.1,0.2c-0.2,0.3-0.3,0.7-0.5,1c0,0.1-0.1,0.2-0.1,0.2c-0.1,0.2-0.2,0.4-0.3,0.7
			c0,0.1-0.1,0.2-0.1,0.2c-0.8,1.9-1.3,3.9-2.2,5.7c-0.3,0.6-0.6,1.2-1.1,1.7c-0.1,0.2-0.3,0.4-0.5,0.6c-0.3,0.3-1.2-0.2-1.6,0.2
			c-0.1,0.1-0.2,0.2-0.3,0.3c-1.7,1.4-3.1,2.3-4.7,2.8c-1,0.3-2.1,0.5-3.4,0.7c0,0,0,0,0,0c-1.9,0.3-4,0.1-5.6,1.8
			c-0.5,0.5-0.9,1.1-1.1,1.6c-0.8,1.7-0.8,3.7,0,5.3c0,0,0,0.1,0.1,0.1c0,0,0,0-0.1,0.1c-0.2,0.2-0.4,0.4-0.6,0.6
			c-0.1,0.2-0.3,0.3-0.4,0.5c-0.4,0.4-0.8,0.9-1.2,1.3c-0.7,0.8-1.4,1.7-2.1,2.5C109.8,764.7,107.3,767.8,104.5,770.8z M235.4,769.4
			c0.2,0.6,0.5,1.2,0.6,1.9c0.2,0.9,0.5,1.9,0.7,2.8c0.6,2.5,1.2,5,1.8,7.6c0.3,1.5,0.7,3.1,1,4.7c0.4,2.1,0.8,4.3,0.8,6.4
			c0,0.8,0,1.6,0,2.4c-0.1,0.8-0.2,1.5-0.4,1.9c0,0,0,0.1,0,0.1c-0.4,1-1.2,1.4-2.5,2.1c-0.1,0-0.1,0.1-0.2,0.1
			c-1.1,0.6-1.9,1.3-3,1.2c-0.2,0-0.4-0.1-0.7-0.1c-2.2-0.8-4.5-2.4-6.8-3.3c-6.5-2.5-12.3-7.3-19.1-9c0,0,0,0-0.1,0
			c0.6-0.7,1.1-1.4,1.9-2.1c0.5-0.4,0.5-1.2,0-1.6c-1.7-1.3-3.5-2.5-5.2-3.7c-1.5-1.1-3.1-2.1-4.7-3.1c-0.7-0.4-1.4-0.9-2.1-1.3
			c-0.5-0.3-1.1-0.6-1.8-1c-1.7-0.9-3.6-2-3.5-4c0.1-2,2.4-5.1,3.2-6.9c0.2-0.4,0.1-0.8-0.1-1c-0.1-0.1-0.2-0.2-0.4-0.3
			c-0.8-0.3-1.9-0.7-2.8-1.3c-0.6-0.4-1.2-0.9-1.6-1.5c-0.1-0.1-0.2-0.3-0.3-0.5c0.6-2,1.3-4,1.8-6c0.3-1.4,0.5-2.7,0.5-4.1
			c0-0.6-0.3-1.2-0.8-1.5c-1.2-0.8-2.6-1-4-1c-1.7-0.6-3.7-0.7-5.3-0.7c-0.5-0.2-1-0.5-1.4-0.9c-0.3-0.2-0.5-0.5-0.7-0.7
			c-0.4-0.6-0.8-1.2-1.2-1.9c-1.3-2.9-0.8-6.6-0.4-9.9c0.1-1.1,0.8-1.7,0.7-3.1c-0.3-4.8-8.7-4.5-8.6-5.5c0-0.4,0-0.8-0.1-1.1
			c-0.2-0.7-0.7-1.1-1.4-1.1c-4.5-0.1-7.4-3.1-9.5-7c-1.5-3-2.5-6.4-3.5-9.7c-0.3-1-0.6-2-0.8-3c0.3,0,0.6,0.1,0.9,0.3
			c0.2,0.1,0.4,0.3,0.5,0.5c0.1,0.1,0.1,0.2,0.2,0.3c4.1,5.4,6.4,5.3,12.4,5.3c0.4,0,0.7,0,1.1,0c0.1,0,0.1,0,0.2,0
			c0.2,0,0.4,0,0.5,0c0.8-0.3,1.5-0.6,2.3-0.8c1-0.1,2-0.2,2.9-0.1c1,0.1,2.1,0.5,3.1,1.1c1.8,1,2.7,2.4,4,4.1
			c4.1,5.4,7.9,9.2,14.2,6.3c0.9-0.4,1.9,0.5,1.9,1.6c0.1,0.8,0.2,1.5,0.3,2.2c0.5,2.7,1.5,4.8,3,6.3c0.6,0.6,1.3,1.1,2.1,1.5
			c0.7,0.4,1.5,0.7,2.3,0.9c0.2,0.1,0.4,0.2,0.6,0.3c0.1,0,0.1,0,0.2,0c0,0.1,0,0.2,0,0.3c0.2,0.2,0.3,0.4,0.3,0.7
			c0.1,1.9,0.7,3.6,1.8,5.1c0,0,0,0.1,0,0.1c0.1,0,0.2,0.1,0.3,0.1c1.3,0.9,2.5,1.9,3.7,2.9c0,0.2,0,0.3,0,0.5
			c0.1,0.2,0.2,0.3,0.3,0.4c0.3,0.2,0.6,0.3,0.9,0.4c0.1,0.1,0.3,0.1,0.4,0.2c0.1,0.1,0.2,0.2,0.4,0.3c0,0,0.1-0.1,0.1-0.1
			c0.4,0.2,0.8,0.3,1.2,0.4c0.4,0.3,0.9,0.7,1.3,1c0.2,0.2,0.3,0.5,0.5,0.7c0.1-0.1,0.1-0.2,0.2-0.3c0.1,0.1,0.2,0.1,0.3,0.2
			c0.1,0.1,0.2,0.1,0.3,0.2c0.6,0.3,1.2,0.6,1.7,0.9c1.9,1,3.5,2.1,5,3.7c0.2,0.3,0.5,0.6,0.7,0.9c0.1,0.1,0.1,0.3,0.1,0.4
			c0,0,0,0,0.1,0c0,0,0.1,0,0.1,0c0.1,0.1,0.2,0.2,0.3,0.3c0.1,0.2,0.3,0.3,0.4,0.5c0,0,0,0,0,0c0.1,0.1,0.1,0.1,0.2,0.2
			c-0.1,0.1-0.1,0.2-0.1,0.4c-0.1,0.7-0.2,1.4-0.4,2.1c-0.1,0.3,0.1,0.8,0.4,1c1.1,0.5,2.2,0.7,2.9,1.4c0.4,0.4,0.7,1,0.8,1.9
			c0.1,0.7,0,1.2,0,1.7c0,0.3,0,0.5,0.1,0.9c0.4,1.9,1.3,3.7,2.1,5.5C234.7,767.9,235.1,768.6,235.4,769.4z M252.8,713.2
			c-4.2,2-2.3,1.7-3.1-0.8c-0.1-0.2-0.2-0.5-0.3-0.7c-0.2-0.5-0.4-1.1-0.6-1.7c-0.6-2.2-0.8-5-1-7.5c0-0.4-0.1-0.9-0.1-1.3
			c-0.1-0.7-0.1-1.3-0.2-1.8c0-0.1-0.1-0.3-0.1-0.4c-0.3-0.7-1.2-1-1.8-0.8c-0.6,0.2-1.3,0.5-2,0.7c-0.7,0.3-1.5,0.6-2.3,0.9
			c-0.6,0.3-1.3,0.5-1.9,0.7c-0.8,0.3-1.6,0.5-2.4,0.7c-0.5,0.1-1,0.2-1.5,0.2c-2.2,0.2-4.4-0.3-6.3-2.1c-0.8-0.8-1.4-1.7-1.9-2.8
			c0,0,0-0.1-0.1-0.1c-1.4-3-2-6.8-3.8-9.8c-0.6-1-1.6-1.1-2.4-0.3c-3.7,4.3-8.5,6.9-13.6,6.7c-0.5,0-1,0-1.5-0.1
			c-0.8-0.1-1.7-0.3-2.5-0.6c-3.1-1-6.1-4.4-9.6-3.8c-2.1,0.4-2.8,1.7-4.4,2.9c-0.4,0.6-0.7,1.3-1,1.9c-0.4,0.3-0.8,0.7-1.2,1.1
			c-0.7,0.5-1.4,0.8-2.1,0.8c-1-0.8-2.1-1.7-3.2-2.4c-1.3-1.3-4.3-4.2-3.7-3.8c-3-1.8-3.8-0.1-5.1,2c0,0,0,0,0,0
			c0.2,1-0.4,2.3-1.5,2.2c0,0.1-0.1,0.2-0.1,0.3c-0.2,0-0.3,0.1-0.5,0.1c-0.1,0-0.3,0.1-0.4,0.1c-0.5,0.1-0.9,0.1-1.3,0.1
			c-3-0.1-5.5-1.8-7.9-4.1c0,0,0,0,0,0c-0.5-1-1-2-1.6-2.8c-1.6-2.2-5-3.6-5.7-5.6c-0.1-0.4-0.2-0.8,0-1.2c0.2-0.9,1-1.9,2.6-3.1
			c0.5-0.4,0.7-1,0.7-1.5c6.7-6.7,14-12.5,22-16.8c1.9-1,3.7-1.6,5.5-2c2.8-0.7,5.6-0.9,8.6-1.6c4.7-1,9.2-2.7,14.1-2.8
			c6.6-0.1,13.5,0.8,20.3,2.8c-0.1,0.8,0.2,1.7,1.1,1.9c1.3,0.3,2.5,0.7,3.8,1.1c1.1,0.4,2.6,0.8,3.4,1.9c0.3,0.5,0.7,0.6,1.1,0.5
			c0.6,0.3,1,0.5,1.7,0.8c0.1,0,0.1,0,0.2,0c10.7,5.3,19.6,13.9,26.1,25.1c2.2,5.1,3.5,10.7,4.7,16.3c0.1,0.6,0.4,0.9,0.7,1.1
			c0.5,2.7,1,5.5,1.5,8.3c0.6,3.7,1,7.5,1.1,11.3c0,1.7,0,3.3-0.1,4.9c-0.1,1.5-0.3,3-0.6,4.4c-0.1,0.7-0.3,1.3-0.4,1.9
			c0,0.2-0.1,0.3-0.1,0.5c-0.9-0.7-1.8-1.3-2.6-1.9c-2.7-2-4.6-3.8-6.2-6.5c-0.5-0.8-0.9-1.8-1.3-2.8c-0.1-0.2-0.2-0.4-0.3-0.7
			c-0.5-1.4-0.9-2.9-1.3-4.8c-0.5-2.5-0.7-5-2.9-6.4c-0.1-0.1-0.2-0.1-0.3-0.1c-0.4-0.2-0.7-0.3-1.1-0.4
			C255,711.6,254.2,712.5,252.8,713.2z M132.3,612.2c-1.3,1.2-2.8,2.7-4.3,4.1c-0.5,0.5-1.1,1.1-1.7,1.6c-0.9,0.8-1.8,1.5-2.7,2.2
			c-0.4,0.3-0.9,0.6-1.3,0.9c-2.5,1.4-5.2,2.1-8.1,1c-4.7-1.8-6.9-8.1-11.1-11.4c-1-0.8-2.3-0.4-2.8,0.9
			c-2.6,6.8-7.3,12.2-13.1,14.6c-0.5,0.2-0.9,0.4-1.4,0.5c-1.1,0.3-2.1,0.6-3.3,0.7c-3.9,0.5-8.5-1.8-12.1,0.6
			c-2.3,1.5-2.5,3.3-3.9,5.5c-0.2,0.9-0.3,1.8-0.4,2.7c-0.3,0.6-0.6,1.2-0.9,1.8c-0.6,1-1.3,1.6-2.1,2c-1.4-0.4-3-0.8-4.4-1.1
			c-1.9-0.8-6.4-2.5-5.5-2.4c-4-0.5-4.3,1.8-5,4.9c0,0,0,0,0,0c0.6,1.1,0.3,2.8-0.9,3.3c0,0.1,0,0.2,0,0.4c-0.2,0.1-0.3,0.2-0.5,0.3
			c-0.2,0.1-0.3,0.2-0.5,0.3c-0.5,0.3-1,0.6-1.5,0.8c-3.4,1.5-6.8,0.8-10.4-0.5c0,0,0,0-0.1,0c-1-0.9-1.9-1.7-2.8-2.3
			c-2.6-1.7-7-1.5-8.4-3.4c-0.3-0.4-0.5-0.8-0.5-1.4c0-1.1,0.5-2.6,1.9-4.8c0.4-0.7,0.4-1.4,0.2-2c4.8-10.4,10.6-20.1,17.5-28.7
			c0.4-0.5,0.8-1.1,1.3-1.6c4.5-5.4,9.4-7.5,14.7-11.3c0.2-0.2,0.4-0.3,0.6-0.5c4.7-3.5,9-7.4,14.2-9.9c7.4-3.5,15.6-6,23.9-7.3
			c0.2,1,0.8,1.8,1.9,1.6c1.6-0.3,3.1-0.5,4.7-0.7c1.4-0.1,3.2-0.4,4.5,0.4c0.6,0.4,1.1,0.3,1.5,0.1c0.8,0.1,1.3,0,2.2,0
			c0.1,0,0.1,0,0.2-0.1c14,0.5,27,5.6,38.4,15c0.3,0.3,0.5,0.6,0.8,0.9c3,3.4,5.6,7.4,8.1,11.4c0.7,1.2,1.5,2.4,2.2,3.7
			c0.3,0.6,0.8,0.8,1.2,0.9c5.6,10.2,12,21.9,12.6,34.3c0,0.2,0,0.3,0,0.5c-1-0.2-1.9-0.4-2.8-0.6c-4.3-1-7.4-2-10.3-4.6
			c-0.6-0.6-1.3-1.2-1.9-1.9c-1.3-1.5-2.5-3.3-3.9-5.6c-1.5-2.6-2.6-5.3-5.6-5.7c-0.2,0-0.3,0-0.5,0c-0.4,0-0.7,0-1.1,0.1
			c-1.6,0.4-2.2,1.9-3.6,3.4c-4.1,4.4-1.9,3.1-3.8,0.7c-0.2-0.2-0.3-0.4-0.6-0.6c-0.3-0.3-0.6-0.6-0.8-1c-2.3-3-4.1-8.8-5.7-12
			C134.3,611.6,133,611.6,132.3,612.2z"/>
		<path class="st11" d="M3.6,645.3c0.8-0.9,1.2-1.8,2.1-2.8c0.9-0.9,1.7-1.6,2.5-2c0.3-0.2,0.6-0.3,0.9-0.4c0.2-0.1,0.4-0.1,0.5-0.2
			c1-0.3,2-0.3,3-0.2c0.7,0.1,1.4,0.2,2.2,0.3c0.5,0.1,1,0.2,1.6,0.2c0.1,0,0.2,0,0.4,0c0.6,0.1,1.1-0.2,1.4-0.5
			c0.1-0.1,0.1-0.2,0.2-0.3c0.1-0.6,0.2-1.1,0.4-1.7c-0.1-0.9-0.6-1.7-1.5-1.8c-0.5-0.1-1.1-0.2-1.6-0.2c-0.3-0.2-0.7-0.4-1.1-0.7
			c-2.9-1.7-6.4-2.4-9.6-3.4c-1.7-0.5-3.3-1-5-1.4v1.7v1.1v4.6v3v4.2v0.3v2.3c0.9-0.3,1.7-0.7,2.4-1.1C2.9,646,3.3,645.7,3.6,645.3z
			"/>
		<path class="st11" d="M152,630c0.7,1.4,1.6,2.6,2.9,3.7c0,0,0.1,0.1,0.1,0.1C154.1,632.1,153.2,630.6,152,630z"/>
		<path class="st11" d="M134.8,612.6c1.6,3.2,3.4,8.9,5.7,12c0.3,0.4,0.5,0.7,0.8,1c0.2,0.2,0.4,0.4,0.6,0.6
			c1.9,2.4-0.3,3.7,3.8-0.7c1.4-1.5,2-3,3.6-3.4c0.3-0.1,0.7-0.1,1.1-0.1c0.2,0,0.3,0,0.5,0c3,0.4,4.1,3.1,5.6,5.7
			c1.4,2.3,2.6,4.1,3.9,5.6c0.6,0.7,1.3,1.4,1.9,1.9c2.9,2.6,6.1,3.6,10.3,4.6c0.9,0.2,1.8,0.4,2.8,0.6c0-0.2,0-0.3,0-0.5
			c-0.6-12.4-6.9-24-12.6-34.3c-0.4,0-0.9-0.3-1.2-0.9c-0.7-1.2-1.5-2.4-2.2-3.7c-2.5-4.1-5.1-8-8.1-11.4c-0.3-0.3-0.5-0.6-0.8-0.9
			c-11.4-9.3-24.5-14.5-38.4-15c-0.1,0-0.1,0-0.2,0.1c-0.9,0-1.4,0-2.2,0c-0.4,0.3-0.9,0.3-1.5-0.1c-1.3-0.8-3.1-0.5-4.5-0.4
			c-1.6,0.1-3.1,0.3-4.7,0.7c-1.1,0.2-1.7-0.6-1.9-1.6c-8.4,1.2-16.5,3.8-23.9,7.3c-5.2,2.5-9.5,6.4-14.2,9.9
			c-0.2,0.2-0.4,0.3-0.6,0.5c-5.3,3.8-10.2,5.9-14.7,11.3c-0.4,0.5-0.8,1.1-1.3,1.6c-6.9,8.6-12.7,18.3-17.5,28.7
			c0.2,0.6,0.2,1.3-0.2,2c-1.4,2.2-1.9,3.7-1.9,4.8c0,0.6,0.2,1,0.5,1.4c1.5,1.9,5.9,1.7,8.4,3.4c0.9,0.6,1.8,1.4,2.8,2.3
			c0,0,0,0,0.1,0c3.6,1.3,7,2,10.4,0.5c0.5-0.2,1-0.5,1.5-0.8c0.2-0.1,0.3-0.2,0.5-0.3c0.2-0.1,0.3-0.2,0.5-0.3c0-0.1,0-0.2,0-0.4
			c1.2-0.5,1.4-2.2,0.9-3.3c0,0,0,0,0,0c0.7-3,1-5.4,5-4.9c-0.8-0.1,3.6,1.6,5.5,2.4c1.5,0.3,3,0.7,4.4,1.1c0.8-0.4,1.5-1,2.1-2
			c0.3-0.6,0.6-1.2,0.9-1.8c0.1-0.9,0.2-1.8,0.4-2.7c1.4-2.2,1.7-4,3.9-5.5c3.7-2.4,8.2-0.1,12.1-0.6c1.1-0.1,2.2-0.4,3.3-0.7
			c0.5-0.2,0.9-0.3,1.4-0.5c5.8-2.4,10.4-7.8,13.1-14.6c0.5-1.3,1.8-1.7,2.8-0.9c4.2,3.3,6.4,9.6,11.1,11.4c2.9,1.1,5.6,0.5,8.1-1
			c0.4-0.3,0.9-0.5,1.3-0.9c0.9-0.6,1.8-1.4,2.7-2.2c0.6-0.5,1.1-1,1.7-1.6c1.5-1.5,2.9-3,4.3-4.1
			C133,611.6,134.3,611.6,134.8,612.6z"/>
		<path class="st11" d="M178.8,636.3c-1.4-9.9-5.6-20.5-11.2-29.7c5.2,9.5,10.3,20.1,11.2,31.2C178.9,637.4,178.9,636.9,178.8,636.3
			z"/>
		<path class="st11" d="M131,620.4c0.7-0.8,1.4-1.7,2-2.8c0-0.1-0.1-0.1-0.1-0.2C132.2,618.4,131.6,619.4,131,620.4z"/>
		<path class="st12" d="M28.5,654.3c0.4,0.5,0.8,0.9,1.2,1.4c4,4.7,8.5,8.4,14.5,6.7c0.2,0,0.3-0.1,0.5-0.2
			c-0.2-0.5-0.2-1.2,0.4-1.4c0.5-0.2,1-0.4,1.5-0.7c1.2-0.5,2.5-1.2,4-2c0,0,0,0,0.1,0c1.6-0.8,3.4-1.7,5.2-2.4
			c3.6-1.5,7.4-2.5,10.3-1.6c0.6,0.2,1.2,0.4,1.7,0.8c0.1,0.1,0.3,0.2,0.4,0.3c0.6,0.5,1.1,1.1,1.6,1.8c0.6-0.4,1.1-0.7,1.7-1.1
			c3.8-2.3,7.8-4.2,12-5.4c8.1-2.3,18.3-3.8,28-2.7c2.3,0.3,4.6,0.7,6.8,1.2c-0.7-0.7-1.3-1.4-2-2.1c-0.9-0.9-1.7-1.7-2.6-2.6
			c-5.1-4.8-18-12.1-28.9-13.2c-1.6-0.2-3.1-0.2-4.6-0.1c-4,0.3-7.5,1.8-9.9,4.9c-0.6,0.8-1.1,1.7-1.6,2.7c-0.5,1.2-1,2.6-1.3,4.2
			c-0.2,1.1-1,2.1-2,1.9c-0.7-0.1-1.4-0.4-2.1-0.6c-1.9-0.6-3.9-1.2-5.6-1.2c0,0,0,0,0,0c0,0,0,0,0,0c0,0-0.1,0-0.1,0
			c-1.2,0.1-2.1,0.2-2.8,0.4c-3,0.8-2.4,2.6-4.8,5.7c-1,1.3-1.9,2.3-3,3c-0.6,0.4-1.3,0.7-2.1,0.9c-3,0.8-5.8-0.3-8.5-1.7
			c-0.7-0.3-1.3-0.7-1.9-1c-1.2-0.6-2.5-1.2-3.8-1.7c-0.9-0.3-1.8-0.7-2.7-1c-0.8-0.3-1.6-0.5-2.4-0.8c-0.3-0.1-0.6-0.2-1-0.3
			c-0.5-0.2-1.1-0.4-1.6-0.6c0,0-0.1,0-0.1,0c-0.1,0-0.2-0.1-0.3-0.1c0,0,0,0,0,0c0,0,0,0,0,0c-0.1,0.2-0.1,0.4-0.1,0.6
			c0.1,0.1,0.2,0.2,0.3,0.3c0.1,0.2,0.3,0.4,0.4,0.5c0.2,0.3,0.5,0.6,0.7,0.8C25.4,650.2,26.9,652.3,28.5,654.3z"/>
		<path class="st11" d="M41.4,675.5c0.8,0.7,1.6,1.4,2.5,1.9c0.7,0.5,1.4,0.9,2.2,1.2c1.5-2.1,3.1-3.9,4.8-5.7c3-3,6.2-5.7,9.3-8.5
			c1.6-1.4,3.3-2.8,4.9-4.1c0.1-0.1,0.3-0.2,0.4-0.3c-1.3-0.7-2.5-1.3-4.1-1.5c-1.4-0.1-2.7,0-3.9,0.4c-1.1,0.4-2.2,1-3.2,1.6
			c-0.8,0.6-1.6,1.3-2.3,2c0,0,0,0-0.1,0.1c-0.3,0.1-0.5,0.2-0.8,0.3c-0.4,0.2-0.8,0.3-1.3,0.5c-6.7,3.1-9.3,4.4-15.9,0.4
			c-0.1-0.1-0.2-0.2-0.3-0.3c-0.3-0.2-0.5-0.3-0.8-0.4c-0.4-0.2-0.8-0.1-1.1,0.1c0.7,0.9,1.3,1.9,2,2.9
			C36.2,669.6,38.7,672.9,41.4,675.5z"/>
		<path class="st11" d="M149.1,723.1C149.1,723.1,149,723.2,149.1,723.1c0,0.1,0,0.1,0,0.1C149.1,723.2,149.1,723.2,149.1,723.1z"/>
		<path class="st14" d="M50.6,658.2C50.6,658.2,50.6,658.2,50.6,658.2"/>
		<path class="st12" d="M63.5,712.9c-0.4,1.2-0.9,2.3-1.4,3.4c0.3,0.2,0.6,0.4,0.8,0.6c0.4,0.3,0.5,0.7,0.3,1.1
			c0.5,0.4,0.4,1.1,0.1,1.6c0.4,0.4,0.8,0.8,1.2,1.3c0,0,0,0,0.1,0.1c0,0,0,0,0,0c1.2-1.7,2.5-3.4,3.9-5
			C66.8,714.6,65.4,713.7,63.5,712.9z"/>
		<path class="st12" d="M42.9,684c0.3-0.6,0.6-1.2,0.9-1.8c-1.2-0.6-2.4-1.4-3.5-2.3c-1.9-1.5-3.7-3.4-5.3-5.5
			c0.2,1.6,0.5,3.2,0.7,4.8c0,0.3,0,0.5,0,0.7c0.1,0.3,0.1,0.6,0.2,0.8c0.2,0.6,0.5,1.2,0.7,1.8c0.1,0.2,0.1,0.4,0.2,0.5
			c0.9,1.6,1.9,3.2,2.8,4.8c1-1.3,2-2.5,3.1-3.7C42.8,684.1,42.9,684,42.9,684z"/>
		<path class="st10" d="M34.3,695c-0.1,0.6-0.3,1.1-0.4,1.7c0.5-1,1.1-2,1.7-3C35,693.8,34.5,694.1,34.3,695z"/>
		<path class="st15" d="M53.4,864.5c0.4,0.2,0.7,0.5,1.1,0.7c12,7.5,23.1,16.7,33.3,27.6c0,0,0,0,0,0c0.4,0.4,0.7,0.7,1.1,0.8
			c3.2,1.5,6.4-4.4,3.3-7.7c-1.7-1.9-3.5-3.7-5.3-5.4c-0.4-0.4-0.8-0.8-1.2-1.1c-9.9-9.5-20.5-17.6-31.9-24.3
			c7.6-16.9,15.1-33.9,22.7-50.8c0.3-0.6,0.5-1.2,0.8-1.7c0.8-1.7,1.5-3.4,2.3-5.2c0.8-1.7,0-4-1.2-5.1c-1.3-1.2-2.7-2.5-4-3.7
			c-0.4-0.4-0.9-0.8-1.3-1.2c-9.7-9-19.4-18-29.1-27c-1.6-1.4-3.1-2.9-4.7-4.3c0,0-0.1-0.1-0.1-0.1c1.6-5.8,5-11.6,7.3-16.8
			c1-2.1,1.9-4.3,2.9-6.4c-2.9,2.9-6,5.7-8.8,8.7c-1.2,1.3-2.3,2.5-3.4,3.9c-0.7,0.9-1.4,1.8-2.1,2.7c0.1,1.1-0.6,2.4-1.8,2.1
			c0,0-0.1,0-0.1,0c-0.2,0.8-0.5,1.5-0.7,2.3c-0.2,0.6-0.3,1.3-0.5,1.9c0,0.1-0.1,0.3-0.1,0.4c0,0.2-0.1,0.4-0.1,0.6
			c0.5,1.9,1.1,3.7,1.6,5.6c0.1,0.2,0.1,0.5,0.2,0.7c0.1,0.1,0.3,0.1,0.4,0.1c0,0,0,0,0,0c0,0.1,0.1,0.2,0.2,0.3
			c0.2,0.4,0.4,0.7,0.8,1c0.2,0.2,0.5,0.4,0.7,0.7c12,11.1,24,22.2,35.9,33.3c-6.6,14.8-13.2,29.6-19.9,44.5
			c-0.3,0.6-0.5,1.2-0.8,1.8c-1.5,3.3-2.9,6.6-4.4,9.9c0,0,0,0,0,0c0.1,1.2,0.2,2.5,0.3,3.7c0,0.5,0.1,1.1,0.1,1.6
			c0,0.8,0.1,1.6,0.1,2.4c0,0,0,0,0,0c0.1,0.1,0.2,0.2,0.4,0.3C49.5,862.1,51.5,863.3,53.4,864.5z"/>
		<path d="M174,774.9c0.1,0.1,0.1,0.2,0.2,0.4c0-0.1-0.1-0.2-0.1-0.2C174.1,775,174,775,174,774.9z"/>
		<path d="M132.8,779.5l-0.1,2.7C132.7,781.3,132.8,780.4,132.8,779.5C132.8,779.5,132.8,779.5,132.8,779.5z"/>
		<path class="st10" d="M161.5,756.7c-0.2-0.5-0.5-1-0.7-1.5c-0.1-0.1-0.1-0.2-0.2-0.3c-2.2-4.8-4-9.8-5.2-15.1
			c-0.1-0.6-0.2-1.2-0.4-1.8c-0.2-0.7-0.4-1.4-0.6-2.2c-0.1-0.3-0.1-0.6-0.2-0.9c-0.1-0.4-0.1-0.8-0.2-1.2c0,0,0-0.1,0-0.1
			c0-0.3-0.1-0.6-0.1-0.9c0-0.2,0-0.4-0.1-0.6c0-0.1,0-0.2,0-0.2c-0.1-0.7-0.2-1.3-0.3-2c-0.2,0-0.3-0.1-0.5-0.1c0,0.1,0,0.1,0,0.2
			c0,0.2,0,0.3-0.1,0.4c0,0.1-0.1,0.2-0.1,0.3c-0.1,0.5-0.2,1.1-0.4,1.6c0,0.2-0.1,0.3-0.2,0.4c-0.1,0.1-0.2,0.2-0.3,0.2
			c0-0.1,0-0.1-0.1-0.2c-0.1-0.2-0.1-0.4-0.2-0.6c-0.1-0.8-0.1-1.7,0-2.4c0-0.4-0.1-0.9-0.3-1.2c-0.5-1-1.6-1.6-2.3-0.4
			c-1,1.6-2.1,3.1-3.4,4.5c-0.2,0.3-0.5,0.6-0.7,0.8c0,0-0.1,0.1-0.1,0.1c-0.3,0.4-0.7,0.8-1,1.2c-0.2,0.2-0.4,0.5-0.6,0.7
			c-1.8,2.2-3.4,4.4-4.4,7c0,0,0,0.1,0,0.1c0,0,0,0,0-0.1c-0.3,0.3-0.5,0.6-0.8,0.9c-0.4,1.2-0.9,2.2-1.3,2.6
			c-0.7,0.6-1.3,0.9-1.9,1c0,0-0.1,0.1-0.1,0.1c0,0-0.1,0.1-0.1,0.1c-0.2,0.3-0.6,0.3-0.9,0.2c0,0,0,0-0.1,0
			c-0.2,0.1-0.5,0.2-0.8,0.4c-0.4,0.2-0.7,0.5-1.1,0.8c0.2,2.7,0.4,5.4,0.5,8.1c0.3,5.6,0.4,11.3,0.3,16.9c0,0,0-0.1,0.1-0.1
			c0.3-0.5,0.7-1.1,1.1-1.6c1.4-2,2.9-3.9,4.5-5.7c0.6-0.7,1.2-1.3,1.8-2c0.5-0.5,1-1,1.5-1.5c0.7-0.7,1.4-1.4,2.1-2.1
			c1.7-1.6,3.3-3.2,5-4.7c1.2-1.1,2.4-2.3,3.5-3.4c-0.4-0.7-0.8-1.4-1.1-2.1c-0.5-1-1.1-1.9-1.6-2.8c-1.7-2.9-3.4-5.9-5.2-8.7
			c-0.3-0.5-0.5-0.9-0.6-1.4c-0.1-0.7,0-1.4,0.3-2c0.1-0.2,0.3-0.5,0.4-0.7c0.5-0.6,1.1-1,1.7-1.2c0.3-0.1,0.5-0.1,0.8-0.1
			c0.2,0,0.5,0,0.7,0.1c0.6,0.2,1.2,0.6,1.7,1.3c0,0,0,0,0,0c0,0.1,0.1,0.1,0.1,0.2c1.4,2.2,2.7,4.4,4,6.6c0.7,1.1,1.3,2.3,2,3.5
			c1.1,1.9,2.2,3.9,3.2,5.9c0.6,1.2,0.6,3.2-0.2,4.2c0,0-0.1,0.1-0.1,0.1c-0.4,0.4-0.7,0.7-1.1,1.1c-0.2,0.3-0.5,0.5-0.7,0.8
			c-0.2,0.2-0.4,0.5-0.7,0.7c-0.5,0.5-1,1.1-1.6,1.6c-2.2,2.3-4.4,4.5-6.5,6.8c-3.1,3.2-7.1,6.5-9.8,10.4c0,0,0.1,0.1,0.1,0.1
			c6.2,12,12.3,24,18.5,36c0.3,0.6,0.6,1.1,0.9,1.7c0.7,1.4,1.4,2.7,2.1,4.1c0.6,1.3,0.6,3.3-0.3,4.4c-1,1-2,2-2.9,3.1
			c-0.4,0.4-0.8,0.9-1.2,1.3c-10,10.4-20,20.9-29.9,31.3c7.1,9.2,13.4,19.1,18.7,29.9c0.3,0.5,0.5,1,0.8,1.6c0.9,2,1.9,3.9,2.7,5.9
			c1.6,3.6-2.2,7-4.3,4.9c-0.3-0.3-0.5-0.6-0.7-1.1c0-0.1-0.1-0.1-0.1-0.2c-5.2-11.9-11.5-22.9-18.9-32.9c-0.3-0.4-0.5-0.7-0.8-1.1
			c-1.2-1.6-2.4-3.2-3.7-4.7c-0.1-0.1-0.1-0.2-0.2-0.3c-2.2,9.7-4.2,19.5-5.5,29.4c-0.4,1.5-0.2,3.3,0.7,4.5
			c0.9,1.3,2.4,1.9,3.7,1.8c8.7,2.4,17.5,4.7,26.2,7.1c2.5,0.7,4.5-1.7,4.6-4.6c1.4-45,19.7-90.6,16.6-135.5
			c-0.3-0.6-0.5-1.2-0.8-1.7C163.3,760.2,162.4,758.5,161.5,756.7z"/>
		<path class="st10" d="M127.1,847.4c8.7-9.1,17.5-18.2,26.2-27.4c-6.5-12.8-13.1-25.5-19.6-38.3c-0.2-0.3-0.3-0.6-0.5-0.9
			c-0.2-0.4-0.4-0.9-0.4-1.3c0,0,0,0,0,0c0,0.9-0.1,1.8-0.1,2.6c-0.5,10.7-1.7,21.4-3.5,32c-2.4,13.7-5.9,27.1-9,40.6
			c1.9-2,3.8-4,5.7-6C126.3,848.3,126.7,847.9,127.1,847.4z"/>
		<path class="st11" d="M148.1,686.6c0.3,0,0.6,0,0.8-0.1c0.6-0.3,0.7-0.9,0.6-1.7C149.1,685.5,148.6,686.1,148.1,686.6z"/>
		<path class="st11" d="M122.9,706c0.2,0.1,0.4,0.2,0.6,0.3c0.7-0.4,1.3-0.9,2-1.4c-0.2-0.6-0.5-1.1-0.6-1.6
			C124.4,704.4,123.7,705.4,122.9,706z"/>
		<path class="st11" d="M116.1,714.4c0.4-0.1,0.9-0.1,1.4-0.1c1.6,0,2.8,0.9,4.1,1.3c-0.3-0.2-0.6-0.4-0.9-0.7
			C118.5,712.4,117.2,713,116.1,714.4z"/>
		<path class="st11" d="M114.6,759c0.4-0.5,0.8-0.9,1.2-1.3c0.1-0.2,0.3-0.3,0.4-0.5c0.2-0.2,0.4-0.4,0.6-0.6c0,0,0,0,0.1-0.1
			c0,0,0-0.1-0.1-0.1c-0.8-1.7-0.8-3.6,0-5.3c0.3-0.6,0.7-1.1,1.1-1.6c1.6-1.7,3.7-1.6,5.6-1.8c0,0,0,0,0,0c1.3-0.2,2.4-0.4,3.4-0.7
			c1.6-0.5,3-1.4,4.7-2.8c0.1-0.1,0.2-0.2,0.3-0.3c0.4-0.4,1.3,0.1,1.6-0.2c0.2-0.2,0.3-0.4,0.5-0.6c0.4-0.5,0.8-1.1,1.1-1.7
			c0.9-1.8,1.4-3.8,2.2-5.7c0-0.1,0.1-0.2,0.1-0.2c0.1-0.2,0.2-0.5,0.3-0.7c0-0.1,0.1-0.2,0.1-0.2c0.2-0.3,0.3-0.7,0.5-1
			c0-0.1,0.1-0.1,0.1-0.2c0.1-0.3,0.3-0.5,0.4-0.8c1.4-2.6,3.1-4.8,4.8-7.2c0.4-0.6,0.8-1.1,1.2-1.7c3.7-5.7,5.6-11.4,6.4-17.6
			c0-0.1,0-0.2,0-0.3c0.1-0.4,0.1-0.9,0.1-1.3c0-0.2,0-0.4,0.1-0.6c0-0.4,0.1-0.9,0.1-1.4c0.1-2.3,0.2-4.7,0.1-7.2
			c-0.6-1.7-1.1-3.5-1.6-5.1c-1.4,0.4-3.3,0-4.9-0.5c0.2,1.3,0.2,2.6,0.1,3.9c-0.1,1-0.3,1.9-0.6,2.8c0,0,0,0,0,0
			c-0.2,0.7-0.5,1.3-0.8,1.8c-0.2,0.3-0.3,0.6-0.5,0.8c0,0.1-0.1,0.1-0.1,0.2c-0.2,1.4-0.5,2.7-0.7,4.1c-0.2,1-1,1.5-1.8,1.4
			c-2.2-0.3-4.4-0.6-6.6-0.9c0.4,1.3,0.9,2.6,1.3,3.8c0.2,0.6,0,1.4-0.3,1.8c-3.7,4.1-7.6,7.8-11.9,11.1c-0.6,0.4-1.3,0.3-1.8-0.2
			c-2.9,1.1-5.7,2.2-8.6,3.3c0,0,0,0.1,0,0.1c-0.3,1.1-1.3,1.5-2.1,1.1c-0.7-0.5-1.3-0.9-1.9-1.1c-0.6-0.2-1.2-0.2-1.7,0
			c-0.7,0.2-1.3,0.7-1.8,1.4c-0.1,0.2-0.3,0.4-0.4,0.6c-0.2,0.3-0.3,0.6-0.5,0.9c0,0.1-0.1,0.2-0.1,0.3c-0.1,0.1-0.1,0.3-0.2,0.4
			c-0.1,0.2-0.2,0.4-0.3,0.6c0.3,1.4,0.4,2.8,0.3,4.2c-0.2,1.2-0.5,2.4-1,3.4c-1.9,3.5-4.8,3.4-7.7,4.6c-0.4,0.2-0.7,0.3-1,0.5
			c-0.5,0.2-0.9,0.4-1.3,0.7c-0.4,0.2-0.8,0.5-1.1,0.7c0,0,0,0,0,0c-0.2,0.2-0.4,0.3-0.6,0.5c-0.9,0.8-1.6,1.8-2.1,3.1
			c-0.1,0.2-0.1,0.3-0.2,0.5c0,0,0,0.1,0,0.1c-0.1,0.1-0.1,0.3-0.2,0.4c-0.3,0.8-0.6,1.8-0.9,2.8c0,0.2-0.1,0.3-0.1,0.5
			c-0.4,1.5-0.8,2.8-1.6,4c-0.7,1.1-1.5,1.8-2.2,2.3c-0.4,0.2-0.7,0.4-1.1,0.5c-0.4,0.1-0.9,0.2-1.4,0.2c-0.2,0.6-0.5,1.4-0.8,2.2
			c-0.3,1-0.7,2.1-1.1,3.4c-0.1,0.3-0.2,0.7-0.2,1c-0.3,1.3-0.8,2.7-1.3,4.1c-0.4,1.5-0.8,3-1.1,4.5c-0.8,4.2-1.1,8.1-0.1,10.2
			c0.5,1,1.2,1.8,2,2.3c4.3,2.6,11.7-2,15.6-4.4c3.7-2.3,6.8-5.1,9.7-8.1c0.3-0.3,0.6-0.6,0.9-0.9c2.7-2.9,5.3-6.1,8-9.3
			C113.2,760.7,113.9,759.8,114.6,759z"/>
		<path class="st12" d="M66.6,759.7c0.2-0.1,0.5-0.3,0.7-0.4c0.1,0,0.1-0.1,0.2-0.1c1.9-1.1,3.9-1.9,6-2.6c0.4-0.1,0.7-0.2,1.1-0.4
			c0.4,0,0.8-0.1,1.3-0.1c0.7,0,1.3-0.2,1.7-0.6c-0.4-0.1-0.8-0.1-1.2-0.1c-1-0.1-2.1,0-3.1,0.2c-2.1,0.3-4.2,1.1-6.1,2.2
			c-0.3,0.2-0.6,0.3-0.9,0.5c-0.1,0-0.1,0.1-0.2,0.1c-0.5,0.3-0.9,0.6-1.4,1c-1,0.8-1.9,1.6-2.7,2.5c0.7,0,1.4-0.2,2.1-0.6
			C64.9,760.8,65.7,760.2,66.6,759.7z"/>
		<path class="st12" d="M58.3,757.8c0,0.7,0.2,1.4,0.5,2c0.1,0.2,0.2,0.3,0.3,0.5c0-0.2-0.1-0.3-0.1-0.5c-0.2-1.3-0.4-2.6-0.6-3.8
			c0,0.3-0.1,0.6-0.1,1C58.3,757.2,58.3,757.5,58.3,757.8z"/>
		<path class="st12" d="M146.4,686.2c0.6,0.2,1.1,0.3,1.6,0.4c0.6-0.4,1.1-1,1.4-1.8c0-0.2-0.1-0.3-0.1-0.5
			c-0.9-0.1-1.7-0.4-2.5-0.6c0,0-0.1,0-0.1,0c-0.2-0.1-0.4-0.1-0.6-0.1c-0.2,0-0.5-0.1-0.7-0.1c0,0,0,0,0,0c-0.1,0-0.2,0-0.3,0
			c-1.1-0.1-1.8,0-2.4,0.2c-0.1,0-0.1,0-0.2,0.1c-0.3,0.1-0.6,0.3-0.8,0.4c-0.5,0.4-1,0.8-1.9,1.1c-0.1,0-0.2,0.1-0.3,0.1
			c-0.1,0-0.2,0.1-0.4,0.1c-1.4,0.3-2.7-0.2-4-0.6c-0.4-0.1-0.8-0.3-1.2-0.4c-0.1,0-0.3-0.1-0.4-0.1c-0.3-0.1-0.6-0.2-1-0.3
			c-0.2-0.1-0.4-0.2-0.6-0.2c-0.3-0.1-0.7-0.2-1-0.4c-1.1-0.4-2.1-0.8-3.2-1.1c0.1,0.2,0.2,0.4,0.3,0.6c0.7,1.4,0.5,3.1-0.3,4.4
			c-3.3,4.6-7.9,5.2-12.6,3.5c-3.6-1.3-12.3-9.8-14.6-0.1c-0.6,2.5,0.8,3.6-0.5,6.4c-0.7,1.6-2.7,2.5-4.1,1.5
			c-2.8-2.1-4.2-1.4-5.3,0.2c-0.6,0.9-1.1,2-1.8,3.1c-0.2,0.3-0.4,0.7-0.6,1c-0.1,0.2-0.3,0.4-0.4,0.5c-0.4,0.5-0.9,1-1.5,1.3
			c-2.2,1.2-2.9-0.1-4.8,0.2c-4,0.6-4.3,4.2-5.4,8.3c-0.3,1-0.8,1.7-1.4,2.1c-0.3,0.2-0.6,0.3-1,0.4c-0.2,0.1-0.5,0.1-0.7,0.1
			c-2.2,2.4-4.4,5-6.2,7.7c0,0,0,0.1-0.1,0.1c0,0.1-0.1,0.1-0.1,0.2c-0.1,0.2-0.2,0.3-0.3,0.5c0,0.1-0.1,0.1-0.1,0.2
			c-0.6,1-1.2,1.9-1.8,3c0,0,0,0.1-0.1,0.1c-1.2,2.2-2.2,4.6-2.9,7.2c0,0.2-0.1,0.3-0.1,0.5c-0.2,0.7-0.3,1.5-0.5,2.2
			c-0.1,0.8-0.2,1.5-0.3,2.3c-0.2,1.8-0.3,3.6-0.3,5.4c0,4.3,0.6,8.6,1.3,12.9c1.1-1,2.4-2,3.7-2.8c0.3-0.2,0.6-0.4,0.9-0.5
			c2-1.1,4-1.9,6.1-2.3c2.6-0.5,5.1-0.4,7.5,0.4c0.2,0.1,0.4,0.2,0.6,0.4c0.1,0,0.2,0,0.3,0c2,0,3.2-3.1,4.2-6.4
			c0.3-0.9,0.5-1.9,0.8-2.8c0.1-0.2,0.1-0.4,0.2-0.7c0-0.1,0-0.1,0.1-0.2c0-0.1,0.1-0.2,0.1-0.3c0.6-2,1.3-3.8,2.3-4.6
			c0.9-0.8,1.8-1.3,2.7-1.6c0.4-0.1,0.7-0.2,1.1-0.3c0,0,0,0,0.1,0c0.3-0.1,0.6-0.2,1-0.2c0.2,0,0.5-0.1,0.7-0.1
			c2.9-0.6,5.4-1.3,6.5-7.8c0.1-0.4,0.1-0.7,0.1-1c0-0.2,0-0.5,0.1-0.7c0-0.4,0.1-0.9,0.1-1.3c0-0.1,0-0.3,0-0.4
			c0-0.2,0-0.5,0.1-0.7c0-0.1,0-0.2,0.1-0.3c0.3-1.4,0.9-2.5,2.8-3.5c2.1-1.1,4.5-0.3,6.6,0.6c0.2-0.6,0.4-1.1,0.6-1.6
			c0.9-1.9,2.2-3.4,3.9-4.2c0.4-0.2,0.9-0.3,1.3-0.4c1.1-1.4,2.3-1.9,4.5,0.4c0.3,0.3,0.6,0.5,0.9,0.7c0.6,0.2,1.2,0.2,2,0
			c5.2-1.5,8.7-7.8,6.7-13.7c-0.5-1.4,0.7-2.4,1.8-2.3c2.6,0.4,6,1.9,8-0.3c0.4-0.4,0.7-1.3,0.9-2.4c0.1-0.4,0.1-0.7,0.2-1.1
			c0.2-0.9,0.3-1.9,0.4-2.9c0-0.4,0.1-0.7,0.1-1.1c0.1-0.7,0.1-1.4,0.2-2c0.1-0.9,0.2-1.6,0.2-2.1c0.1-0.7,0.5-1.1,0.9-1.2
			c0.1-0.2,0.2-0.4,0.3-0.5c0.1-0.1,0.2-0.2,0.3-0.3c0.3-0.2,0.6-0.2,1-0.1C145,685.7,145.7,686,146.4,686.2z M123.4,706.3
			c-0.2-0.1-0.4-0.2-0.6-0.3c0.8-0.6,1.5-1.5,1.9-2.7c0.2,0.5,0.4,1.1,0.6,1.6C124.8,705.4,124.1,705.8,123.4,706.3z"/>
		<path class="st12" d="M143.8,698c0.3-0.6,0.6-1.2,0.8-1.8c0,0,0,0,0,0c0.3-0.9,0.5-1.8,0.6-2.8c0.1-1.2,0.1-2.5-0.1-3.9
			c-0.1,0-0.2-0.1-0.3-0.1c-0.2,1-0.3,2-0.5,3c-0.2,0.9-0.3,1.9-0.5,2.8c0,0,0,0.1,0,0.1c-0.1,0.8-0.3,1.6-0.4,2.4
			c-0.1,0.4-0.1,0.7-0.2,1.1c0,0.1,0,0.2,0,0.2c0-0.1,0.1-0.1,0.1-0.2C143.5,698.6,143.7,698.3,143.8,698z"/>
		<path class="st11" d="M130.4,659.1c-0.1-0.1-0.2-0.3-0.3-0.4c-0.1,0-0.1-0.1-0.2-0.1c-0.6-0.6-1.3-1.1-2-1.6
			c-0.4-0.3-0.9-0.6-1.3-0.9c-1.1-0.7-2.3-1.3-3.5-1.8c-5.8-2.4-12.1-2.5-18.4-2.5c-3.4,0-6.8,0.1-10.2,0.3
			c-4.2,0.4-8.5,1.1-12.6,2.5c-3.1,1.1-6,2.6-8.9,4.3c-0.5,0.3-1,0.6-1.4,0.9c-0.2,0.2-0.5,0.3-0.7,0.5c-0.6,0.4-1.1,0.8-1.7,1.2
			c-0.2,0.1-0.3,0.2-0.5,0.4c-0.1,0-0.1,0.1-0.2,0.1c-1.2,0.8-2.3,1.7-3.4,2.6c-1.1,0.9-2.2,1.8-3.3,2.8c-4.2,3.7-8.8,7.4-12.4,12
			c-0.3,0.4-0.6,0.8-0.9,1.2c-0.2,0.3-0.4,0.5-0.5,0.8c-0.4,0.6-0.8,1.3-1.2,2c-0.1,0.1-0.2,0.3-0.3,0.4c-0.6,1-1.1,2-1.5,3.1
			c-0.3,0.6-0.7,0.9-1.1,0.9c-0.2,0.2-0.3,0.4-0.5,0.6c-0.8,0.9-1.5,1.8-2.2,2.7c0,0-0.1,0.1-0.1,0.1c-0.2,0.3-0.5,0.6-0.7,0.9
			c-0.9,1.2-1.7,2.5-2.5,3.8c-0.3,0.5-0.6,1-0.9,1.6c-0.1,0.1-0.1,0.2-0.2,0.4c-0.7,1.3-1.4,2.7-2,4.2c-1,2.3-1.9,4.7-2.6,7.2
			c-0.4,1.4-0.7,2.7-1,4.1c-0.6,2.7-0.9,5.5-1.1,8.3c0,0.6-0.1,1.1-0.1,1.7c-0.1,2.3-0.1,4.6,0,6.9c0,0.3,0,0.6,0,1c0,0,0,0,0,0.1
			c0,0.1,0,0.2,0,0.3c0.1,2.9,0.1,7.8,1.2,11.2c0.4,1.2,0.9,2.3,1.6,3c0.8-1.1,1.5-2.2,2.3-3.2c0.6-0.8,1.3-1.6,1.9-2.4
			c0.1-0.1,0.1-0.1,0.2-0.2c0.5-0.6,0.9-1.1,1.4-1.7c0.6-0.7,1.2-1.3,1.8-2c1.3-1.5,2.7-3,4.1-4.4c2-1.9,4-3.7,5.9-5.6
			c0.7-0.6,1.4-1.3,2-2c0.2-0.2,0.4-0.4,0.5-0.6c0.1-0.2,0.3-0.3,0.4-0.5c0.1-0.1,0.2-0.2,0.3-0.4c0,0,0.1-0.1,0.1-0.1
			c1-1.1,2-2.2,2.8-3.4c0,0,0.1-0.1,0.1-0.1c0.3-0.4,0.5-0.7,0.8-1.1c0.4-0.6,0.8-1.3,1.2-2c0.2-0.3,0.3-0.6,0.5-0.9
			c0-0.1,0.1-0.1,0.1-0.2c0-0.1,0.1-0.1,0.1-0.2c0.1-0.2,0.2-0.4,0.3-0.6c0.6-1.3,1.2-2.7,1.6-4.2c0.2-0.7,0.7-1.4,1.4-1.4
			c0.1,0,0.3,0,0.4,0.1c2.7,0.9,5,2.2,7.3,4.1c-0.1-0.5-0.1-1.1,0.1-1.7c0-0.1,0-0.2,0.1-0.3c0.1-0.4,0.2-0.8,0.3-1.2
			c0.6-2.7,0.9-5.6,1.8-8.1c0.3-0.8,0.6-1.5,1-2.2c0.2-0.3,0.4-0.6,0.6-0.9c0.2-0.2,0.3-0.4,0.5-0.6c0.2-0.2,0.4-0.4,0.7-0.6
			c1.7-1.4,3-1.2,4.4-1c0.6,0.1,1.1,0.2,1.7,0.2c0.5,0,1.1-0.1,1.6-0.3c0.9-0.4,1.5-1.3,2-2.3c0.9-1.8,1.8-4,3.9-4.8
			c1.9-0.8,3.7-0.5,5.5,0.2c-0.2-1.1-0.4-2.2-0.3-3.1c0-0.3,0-0.6,0.1-0.8c0.8-3.1,2.8-5.4,5.3-6.6c1.4-0.7,2.9-0.8,4.5-0.5
			c6,1.1,13.1,7.4,17.5,5.2c-0.7-1.4-1.4-2.8-2.2-4.2c-0.1-0.1-0.1-0.2-0.2-0.4c0-0.1-0.1-0.2-0.1-0.3c0-0.1-0.1-0.2-0.1-0.3
			c-0.2-1,0-2,0.4-2.8c0.3-0.7,0.8-1.2,1.4-1.5c1,0.4,2.1,0.8,3.2,1.3c0.5,0.2,1.1,0.5,1.7,0.7c0.2,0.1,0.4,0.2,0.7,0.3
			c0.7,0.3,1.5,0.6,2.2,0.9c0.9,0.4,1.8,0.7,2.7,0.9c0.7,0.2,1.3,0.3,1.9,0.5c1.1,0.2,2.2,0.3,3.2,0.2c0.4-0.1,0.8-0.2,1.1-0.3
			c0.1-0.1,0.2-0.1,0.3-0.2c0.6-0.4,1.2-0.9,2-1.3c0.1,0,0.2-0.1,0.3-0.1c0.5-0.2,0.9-0.3,1.3-0.4c0.3-0.1,0.6-0.1,0.8-0.1
			c0.1,0,0.2,0,0.2,0c0.2,0,0.4,0,0.6,0c0.2,0,0.3,0,0.5,0.1c0.1,0,0.3,0.1,0.4,0.1c0.3,0.1,0.6,0.2,0.9,0.3
			c0.3,0.1,0.6,0.3,0.9,0.4c0.7,0.4,1.3,0.8,2.1,1.3c0.3,0.2,0.6,0.4,0.9,0.6c0.1,0.1,0.2,0.1,0.3,0.2c0.4,0.3,0.9,0.3,1.2,0.1
			c0.1,0,0.2-0.1,0.3-0.2c0.2-0.4,0.4-0.8,0.7-1.1c0.2-0.7,0-1.5-0.7-1.9c-0.4-0.2-0.8-0.5-1.2-0.8c-0.2-0.3-0.4-0.6-0.7-0.9
			c-1.9-2.3-4.4-4.2-6.6-6c-2.5-2-5-4-7.5-6C133.3,661.4,131.9,660.3,130.4,659.1C130.5,659.2,130.4,659.1,130.4,659.1z"/>
		<path class="st11" d="M276.4,723.4c0.1,3.8-0.2,7.4-1,11c0.2-0.3,0.3-0.7,0.4-1.2C276.3,730.2,276.5,726.9,276.4,723.4
			c0-3.3-0.3-6.7-0.7-10.1c-0.3-2.4-0.8-4.7-1.3-7.1c0.4,2.3,0.8,4.7,1.2,7C276,716.7,276.3,720.1,276.4,723.4z"/>
		<path class="st11" d="M242.6,704.1c0.7-0.4,1.5-0.9,2.2-1.5c0-0.1,0-0.1,0-0.2C244,703,243.3,703.6,242.6,704.1z"/>
		<path class="st11" d="M257.6,712.3c2.2,1.3,2.4,3.9,2.9,6.4c0.4,1.8,0.8,3.4,1.3,4.8c0.1,0.2,0.2,0.5,0.3,0.7c0.4,1,0.8,2,1.3,2.8
			c1.5,2.7,3.5,4.5,6.2,6.5c0.8,0.6,1.6,1.2,2.6,1.9c0-0.2,0.1-0.3,0.1-0.5c0.2-0.6,0.3-1.3,0.4-1.9c0.3-1.4,0.5-2.9,0.6-4.4
			c0.1-1.6,0.2-3.3,0.1-4.9c-0.1-3.7-0.5-7.5-1.1-11.3c-0.4-2.8-1-5.6-1.5-8.3c-0.3-0.2-0.6-0.5-0.7-1.1c-1.2-5.6-2.5-11.2-4.7-16.3
			c-6.5-11.2-15.4-19.9-26.1-25.1c-0.1,0-0.1,0-0.2,0c-0.7-0.3-1.1-0.5-1.7-0.8c-0.4,0.1-0.8-0.1-1.1-0.5c-0.8-1.1-2.3-1.5-3.4-1.9
			c-1.2-0.5-2.5-0.8-3.8-1.1c-0.9-0.2-1.2-1.1-1.1-1.9c-6.8-2-13.7-2.9-20.3-2.8c-4.9,0.1-9.3,1.8-14.1,2.8c-3,0.7-5.8,0.9-8.6,1.6
			c-1.8,0.4-3.6,1-5.5,2c-8,4.3-15.3,10.1-22,16.8c0,0.6-0.1,1.1-0.7,1.5c-1.6,1.2-2.4,2.2-2.6,3.1c-0.1,0.4-0.1,0.9,0,1.2
			c0.7,2,4.1,3.4,5.7,5.6c0.5,0.8,1.1,1.8,1.6,2.8c0,0,0,0,0,0c2.4,2.3,4.9,4,7.9,4.1c0.4,0,0.9,0,1.3-0.1c0.1,0,0.3,0,0.4-0.1
			c0.2,0,0.3-0.1,0.5-0.1c0-0.1,0.1-0.2,0.1-0.3c1,0.1,1.6-1.2,1.5-2.2c0,0,0,0,0,0c1.3-2.1,2.1-3.8,5.1-2c-0.6-0.4,2.4,2.5,3.7,3.8
			c1.1,0.7,2.2,1.6,3.2,2.4c0.7,0,1.4-0.3,2.1-0.8c0.4-0.4,0.8-0.8,1.2-1.1c0.3-0.7,0.6-1.3,1-1.9c1.6-1.2,2.3-2.5,4.4-2.9
			c3.4-0.6,6.4,2.8,9.6,3.8c0.8,0.3,1.7,0.4,2.5,0.6c0.5,0.1,1,0.1,1.5,0.1c5,0.1,9.9-2.4,13.6-6.7c0.7-0.8,1.8-0.7,2.4,0.3
			c1.8,3,2.4,6.8,3.8,9.8c0,0,0,0.1,0.1,0.1c0.5,1.1,1.1,2,1.9,2.8c1.9,1.8,4.1,2.3,6.3,2.1c0.5,0,1-0.1,1.5-0.2
			c0.8-0.2,1.6-0.4,2.4-0.7c0.6-0.2,1.3-0.5,1.9-0.7c0.8-0.3,1.5-0.6,2.3-0.9c0.7-0.3,1.3-0.5,2-0.7c0.6-0.2,1.4,0.1,1.8,0.8
			c0.1,0.1,0.1,0.2,0.1,0.4c0.1,0.5,0.1,1.2,0.2,1.8c0,0.4,0.1,0.8,0.1,1.3c0.2,2.5,0.4,5.4,1,7.5c0.2,0.6,0.4,1.2,0.6,1.7
			c0.1,0.3,0.2,0.5,0.3,0.7c0.8,2.5-1.1,2.7,3.1,0.8c1.4-0.7,2.2-1.6,3.5-1.4c0.3,0,0.7,0.2,1.1,0.4
			C257.4,712.2,257.5,712.3,257.6,712.3z"/>
		<path class="st11" d="M257.4,720.5c-0.2-0.6-0.5-1.1-0.8-1.5c0.2,1.3,0.6,2.6,1.3,3.8c0,0,0,0.1,0.1,0.1c-0.1-0.7-0.3-1.4-0.5-2.1
			C257.5,720.7,257.4,720.6,257.4,720.5z"/>
		<path class="st12" d="M209.8,728.5c0.9-0.1,1.9,1.1,1.5,2.2c-1.7,5.5,4.4,8.4,7.6,10.7c1.6-1.7,3.5-1.3,5.5,0.7
			c1.3,1.3,1.9,3.5,3.2,4.9c1.8,2.2,4.2,3.3,6.4,4.7c0.1,0.1,0.3,0.2,0.4,0.3c0.8,0.5,1.5,1,2.2,1.5c-0.2-0.5-0.3-1.1-0.5-1.6
			c-3-9.5-5.9-19.3-9.6-28.4c-1-2.3-2-4.6-3.1-6.8c-2.8-5.5-11-15.7-19.2-20.4c-1.2-0.7-2.4-1.2-3.5-1.7c-3.2-1.1-6.2-1.2-8.8,0.4
			c-0.7,0.4-1.3,0.9-1.9,1.6c-0.7,0.8-1.4,1.7-2,2.8c-0.4,0.8-1.3,1.3-2,0.7c-0.5-0.3-1-0.8-1.5-1.2c-1.3-1.1-2.7-2.3-4-2.9
			c0,0,0,0,0,0c0,0,0,0,0,0c0,0-0.1,0-0.1,0c-0.9-0.4-1.7-0.6-2.3-0.7c-2.5-0.4-2.5,1.2-5.1,2.7c-1.1,0.7-2,1.1-3.1,1.3
			c-0.6,0.1-1.2,0.1-1.9,0c-2.5-0.4-4.4-2.3-6.2-4.3c-0.4-0.5-0.9-1-1.3-1.5c-0.8-0.9-1.6-1.8-2.5-2.6c-0.6-0.6-1.2-1.2-1.9-1.7
			c-0.6-0.5-1.1-1-1.7-1.5c-0.2-0.2-0.4-0.4-0.7-0.6c-0.4-0.3-0.7-0.7-1.1-1c0,0-0.1-0.1-0.1-0.1c-0.1-0.1-0.1-0.1-0.2-0.2
			c0,0,0,0,0,0c0,0,0,0,0,0c-0.1,0.1-0.2,0.3-0.2,0.4c0.1,0.1,0.1,0.2,0.2,0.4c0.1,0.2,0.1,0.4,0.2,0.6c0.1,0.3,0.2,0.6,0.3,0.9
			c0.7,2,1.4,4.2,2.1,6.3c0.2,0.5,0.4,1,0.6,1.5c1.9,5.1,4.6,9.5,9.6,10.3c0.1,0,0.3,0,0.4,0c-0.1-0.5,0.2-1,0.7-0.9
			c0.4,0,0.9,0,1.3,0c1.1,0,2.3-0.1,3.6-0.1c0,0,0,0,0,0c1.5-0.1,3.1-0.1,4.6-0.1c3.2,0.1,6.3,0.6,8.4,2.4c0.4,0.4,0.8,0.8,1.1,1.2
			c0.1,0.1,0.2,0.3,0.3,0.4c0.3,0.6,0.6,1.3,0.8,2c0.2,0,0.4,0.2,0.5,0.4c0,0.1,0.1,0.1,0.1,0.2c2.2,4.2,7.1,6,10.8,3.8
			c0.3-0.2,0.5-0.1,0.7,0c0,0,0,0,0,0c0.9-0.5,1.9-0.2,2.2,1c0.3,1.1,0.6,2.1,0.8,3.2c0,0,0,0,0,0c-0.3,0.6-0.3,1.3,0,1.9
			c0.3,0.4,0.6,0.8,0.8,1.2c0,0.1,0.1,0.1,0.1,0.2c0.1,0.1,0.1,0.1,0.2,0.2c0,0.1,0.1,0.2,0.1,0.4
			C204.1,726.5,206,728.8,209.8,728.5z"/>
		<path class="st11" d="M232.2,760.8c0-0.6,0.1-1,0-1.7c-0.1-0.9-0.4-1.5-0.8-1.9c-0.7-0.7-1.7-0.9-2.9-1.4c-0.3-0.1-0.4-0.6-0.4-1
			c0.1-0.7,0.2-1.4,0.4-2.1c0-0.2,0.1-0.3,0.1-0.4c-0.1-0.1-0.1-0.1-0.2-0.2c0,0,0,0,0,0c-0.1-0.2-0.3-0.3-0.4-0.5
			c-0.1-0.1-0.2-0.2-0.3-0.3c0,0-0.1,0-0.1,0c0,0,0,0-0.1,0c0-0.1-0.1-0.3-0.1-0.4c-0.2-0.3-0.4-0.6-0.7-0.9c-1.5-1.6-3.2-2.6-5-3.7
			c-0.5-0.3-1.1-0.6-1.7-0.9c-0.1-0.1-0.2-0.1-0.3-0.2c-0.1-0.1-0.2-0.1-0.3-0.2c-0.1,0.1-0.2,0.2-0.2,0.3c-0.2-0.2-0.3-0.5-0.5-0.7
			c-0.5-0.3-0.9-0.6-1.3-1c-0.4-0.1-0.8-0.3-1.2-0.4c0,0-0.1,0.1-0.1,0.1c-0.1-0.1-0.2-0.2-0.4-0.3c-0.1-0.1-0.3-0.1-0.4-0.2
			c-0.3-0.1-0.6-0.3-0.9-0.4c-0.2-0.1-0.3-0.2-0.3-0.4c-0.1-0.2-0.1-0.3,0-0.5c-1.2-1-2.4-1.9-3.7-2.9c-0.1-0.1-0.2-0.1-0.3-0.1
			c0,0,0-0.1,0-0.1c-1-1.5-1.6-3.2-1.8-5.1c0-0.3-0.2-0.5-0.3-0.7c-0.1-0.1-0.1-0.2-0.2-0.2c-0.2-0.2-0.4-0.3-0.6-0.3
			c-0.9-0.2-1.6-0.6-2.3-0.9c-0.8-0.4-1.5-0.9-2.1-1.5c-1.5-1.5-2.5-3.6-3-6.3c-0.1-0.7-0.2-1.4-0.3-2.2c-0.1-1.1-1-2.1-1.9-1.6
			c-6.2,2.9-10-0.9-14.2-6.3c-1.3-1.6-2.2-3.1-4-4.1c-1-0.6-2.1-0.9-3.1-1.1c-1,0-1.9,0-2.9,0.1c-0.8,0.2-1.5,0.4-2.3,0.8
			c0,0,0,0-0.1,0c-0.2,0-0.5,0-0.7,0c-0.4,0-0.7,0-1.1,0c-6,0-8.3,0.2-12.4-5.3c-0.1-0.1-0.1-0.2-0.2-0.3c-0.1-0.2-0.3-0.4-0.5-0.5
			c-0.3-0.3-0.6-0.4-0.9-0.3c0.3,1,0.6,2,0.8,3c0.9,3.3,2,6.8,3.5,9.7c2.1,3.9,5,6.9,9.5,7c0.7,0,1.2,0.5,1.4,1.1
			c0.1,0.3,0.2,0.7,0.1,1.1c-0.1,1,8.3,0.7,8.6,5.5c0.1,1.4-0.6,2-0.7,3.1c-0.4,3.2-0.9,7,0.4,9.9c0.4,0.7,0.8,1.3,1.2,1.9
			c0.2,0.2,0.4,0.5,0.7,0.7c0.5,0.4,0.9,0.7,1.4,0.9c1.5-0.1,3.5,0.1,5.3,0.7c1.4,0,2.7,0.2,4,1c0.4,0.3,0.8,0.9,0.8,1.5
			c0,1.4-0.2,2.8-0.5,4.1c-0.5,2-1.2,4-1.8,6c0.1,0.2,0.2,0.3,0.3,0.5c0.4,0.6,1,1.1,1.6,1.5c0.9,0.6,2,1,2.8,1.3
			c0.1,0.1,0.3,0.2,0.4,0.3c0.2,0.3,0.3,0.6,0.1,1c-0.8,1.7-3.1,4.9-3.2,6.9c-0.1,2,1.8,3.1,3.5,4c0.7,0.4,1.4,0.7,1.8,1
			c0.7,0.4,1.4,0.9,2.1,1.3c1.6,1,3.1,2,4.7,3.1c1.8,1.2,3.5,2.4,5.2,3.7c0.5,0.4,0.5,1.1,0,1.6c-0.8,0.7-1.4,1.3-1.9,2.1
			c0,0,0,0,0.1,0c6.7,1.7,12.5,6.5,19.1,9c2.3,0.9,4.6,2.5,6.8,3.3c0.2,0.1,0.5,0.1,0.7,0.1c1.1,0.1,1.8-0.6,3-1.2
			c0.1,0,0.1-0.1,0.2-0.1c1.3-0.7,2.1-1.1,2.5-2.1c0,0,0-0.1,0-0.1c0.2-0.5,0.3-1.1,0.4-1.9c0.1-0.8,0.1-1.6,0-2.4
			c-0.1-2.1-0.4-4.2-0.8-6.4c-0.3-1.6-0.7-3.2-1-4.7c-0.5-2.5-1.1-5.1-1.8-7.6c-0.2-0.9-0.5-1.9-0.7-2.8c-0.2-0.6-0.4-1.2-0.6-1.9
			c-0.3-0.7-0.7-1.4-0.9-2.1c-0.8-1.8-1.7-3.6-2.1-5.5C232.3,761.4,232.2,761.1,232.2,760.8z"/>
		<path class="st11" d="M206.4,786.8c0.3-0.4,0.6-0.8,0.9-1.1C206.8,785.9,206.5,786.4,206.4,786.8z"/>
		<path class="st14" d="M171,705.2C171,705.2,171,705.2,171,705.2"/>
		<path class="st12" d="M161.8,747.3c0.3,0.9,0.7,1.8,1,2.6c0.2,0.3,0.4,0.6,0.6,0.9c0.9,1.4,1.8,2.8,2.7,4.1c0,0,0,0,0,0
			c0.2,0.3,0.2,0.7,0,0.9c0.3,0.5,0.1,1-0.3,1.2c0,0,0,0-0.1,0c1.9,4.5,3.9,8.9,5.9,13.2c0.7,1.5,1.5,3,2.3,4.6c0,0,0.1,0.1,0.1,0.1
			c0,0.1,0.1,0.2,0.1,0.2c1,2,1.9,3.9,2.8,6c1,2.5,1.9,5,3.1,7.3c0.1-0.2,0.2-0.4,0.2-0.6c0.9-2.4,2-4.8,3.1-7.2
			c0.1-0.1,0.1-0.2,0.2-0.3c-0.5-0.6-0.7-1.6-0.1-2.4c1.3-2.1,1.6-2.2,1-4.4c-0.3-1-0.4-1.9-0.2-2.9c0.1-0.9,0.5-1.9,0.8-2.8
			c0,0,0-0.1,0.1-0.1c0.3-0.7,0.7-1.4,1-2.1c0.5-1.4,1.3-2.7,2.3-4.3c-0.9,0-1.8-0.8-1.4-2.1c0.2-0.8,1.3-3.5,1.8-5.4
			c0.2-0.6,0.2-1.2,0.2-1.5c-0.4-2.6,0-0.6-2.3-1.4c-2.4-0.8-5-0.7-7.2-2.3c-3-2.2-4.8-6.6-5-10.8c0,0,0-0.1,0-0.1
			c0-0.1-0.1-0.2-0.1-0.2c-0.5-1.5,0.1-2.2,0.8-3.2c0.2-0.8,0.4-1.6,0.4-2.2c-0.5-4.3-2.8-1.8-5.1-2.9c-1.7-0.8-2.5-1.9-2.7-3.6
			c-2-0.3-3.7-1-5.2-2c-0.1-0.1-0.3-0.2-0.4-0.3c-0.1-0.1-0.2-0.2-0.3-0.3c-0.6-0.5-1.2-1.1-1.8-1.7c-0.1-0.1-0.2-0.2-0.3-0.3
			c-2.1-2.4-3.6-5.6-4.8-9c0,0.3-0.1,0.6-0.1,1c-0.2,1-0.3,2-0.5,3c0,0.2-0.1,0.4-0.2,0.5c0,0.2,0,0.5,0,0.7c0,0.7,0.1,1.4,0.1,2.1
			c0.3,1.3,0.6,2.6,0.9,3.9c0.1,0.6,0.2,1.2,0.3,1.8c0.1,0.8,0.2,1.5,0.2,2.2c0,1.4,0,2.7,0,4.1c0,0.2,0.1,0.3,0.1,0.5
			c0.1,0.4,0.2,0.8,0.2,1.2c0,0,0,0.1,0,0.1c0.1,0.3,0.1,0.6,0.2,0.9c0,0,0,0,0,0c0.1,0.5,0.2,1,0.3,1.5c1,3.8,2.4,7.3,4.2,10.7
			c0.1,0.1,0.2,0.2,0.2,0.4C161.2,746.7,161.6,746.8,161.8,747.3z"/>
		<path class="st15" d="M122.6,865.9c0.3,0.4,0.5,0.7,0.8,1.1c7.4,10,13.7,20.9,18.9,32.9c0,0.1,0.1,0.1,0.1,0.2
			c0.2,0.5,0.5,0.8,0.7,1.1c2.1,2.1,5.9-1.3,4.3-4.9c-0.9-2-1.8-4-2.7-5.9c-0.3-0.5-0.5-1.1-0.8-1.6c-5.3-10.8-11.5-20.7-18.7-29.9
			c10-10.4,20-20.9,29.9-31.3c0.4-0.4,0.8-0.9,1.2-1.3c1-1,2-2,2.9-3.1c1-1,1-3.1,0.3-4.4c-0.7-1.4-1.4-2.7-2.1-4.1
			c-0.3-0.6-0.6-1.1-0.9-1.7c-6.2-12-12.3-24-18.5-36c0-0.1-0.1-0.1-0.1-0.1c2.7-3.9,6.7-7.2,9.8-10.4c2.2-2.3,4.4-4.5,6.5-6.8
			c0.5-0.5,1-1.1,1.6-1.6c0.2-0.2,0.4-0.5,0.7-0.7c0.2-0.3,0.5-0.5,0.7-0.8c0.4-0.4,0.7-0.7,1.1-1.1c0,0,0.1-0.1,0.1-0.1
			c0.9-1.1,0.9-3,0.2-4.2c-1-2-2.1-4-3.2-5.9c-0.7-1.2-1.3-2.3-2-3.5c-1.3-2.2-2.6-4.4-4-6.6c0-0.1-0.1-0.1-0.1-0.2c0,0,0,0,0,0
			c-0.5-0.7-1.1-1.2-1.7-1.3c-0.2-0.1-0.5-0.1-0.7-0.1c-0.3,0-0.5,0-0.8,0.1c-0.7,0.2-1.3,0.6-1.7,1.2c-0.2,0.2-0.3,0.4-0.4,0.7
			c-0.3,0.6-0.4,1.3-0.3,2c0.1,0.4,0.3,0.9,0.6,1.4c1.8,2.8,3.6,5.8,5.2,8.7c0.5,0.9,1.1,1.9,1.6,2.8c0.4,0.7,0.8,1.4,1.1,2.1
			c-1.1,1.1-2.3,2.3-3.5,3.4c-1.6,1.5-3.3,3.1-5,4.7c-0.7,0.7-1.4,1.4-2.1,2.1c-0.5,0.5-1,1-1.5,1.5c-0.6,0.6-1.2,1.3-1.8,2
			c-1.6,1.8-3.2,3.7-4.5,5.7c-0.4,0.5-0.7,1.1-1.1,1.6c0,0,0,0.1-0.1,0.1c-0.1,0.1-0.2,0.3-0.3,0.4c-0.1,1.9-0.1,3.7-0.2,5.5
			c0.1,0.1,0.2,0.2,0.3,0.2c0,0,0,0,0,0c0,0,0,0,0,0c0.1,0.4,0.2,0.9,0.4,1.3c0.2,0.3,0.3,0.6,0.5,0.9c6.5,12.8,13.1,25.5,19.6,38.3
			c-8.7,9.1-17.5,18.2-26.2,27.4c-0.4,0.4-0.8,0.9-1.3,1.3c-1.9,2-3.8,4-5.7,6c0,0,0,0,0,0c-0.2,1-0.4,2-0.6,3
			c-0.1,0.4-0.2,0.8-0.3,1.3c-0.2,0.6-0.3,1.3-0.5,1.9c0,0,0,0,0,0c0.1,0.1,0.1,0.2,0.2,0.3C120.2,862.8,121.4,864.4,122.6,865.9z"
			/>
		<path class="st16" d="M572.1,711.7l1.1-3l4,1.6l-0.2,0.5l0,0l2.1-0.9l6.6-20.4v-0.4l-5.3-1.5l5-16l0.3,0.1v-3.6V652h-18.2v12.3
			l-15.6-0.6V652h-22.7v13l-19.5-1.9v-11h-22.7v13.6l-13.5-1.5v0l-4.6-0.5V652h-18.8v46.8v12.9H572.1z M531.2,711.7h-27.4v-26.3
			h27.4V711.7z"/>
		<polygon class="st16" points="585.6,711.7 585.6,708 584.4,711.7 		"/>
		<path class="st17" d="M486.9,665.6V652h22.7v11l19.5,1.9v-13h22.7v11.7l12.7-0.9v-36.3l-18.9,0.9v8.5l-16.2,0.5v-9.9h-19.2v10.4
			l-12.3-0.5l-4.4-0.2v-9.7h-20.2v37.8v0L486.9,665.6z M554.5,631.4c1.3-0.1,2.6,0.4,3.4,1.4c0.9,1.2,1,2.7,1.3,4.1
			c0.2,0.9-0.5,1.6-1.4,1.4c-2-0.4-3.9-0.2-5.8,0.6c-0.5,0.2-0.8,0-1-0.3c-0.3-0.1-0.6-0.4-0.7-0.7c0-0.2,0-0.4,0-0.6
			c0-0.1-0.1-0.1-0.1-0.2C549.8,634.4,551.5,631.5,554.5,631.4z M519.5,630.7c1.3-0.1,2.6,0.4,3.4,1.4c0.9,1.2,1,2.7,1.3,4.1
			c0.2,0.9-0.5,1.6-1.4,1.4c-2-0.4-3.9-0.2-5.8,0.6c-0.5,0.2-0.8,0-1-0.3c-0.3-0.1-0.6-0.4-0.7-0.7c0-0.2,0-0.4,0-0.6
			c0-0.1-0.1-0.1-0.1-0.2C514.9,633.8,516.5,630.9,519.5,630.7z"/>
		<path class="st18" d="M510.2,626.4h19.2v9.9l12.5-0.4v-36.4h-14.9v8.9H522h-4.2h-4.9v-8.9h-15.3l0.4,36.7l12.3,0.5V626.4z
			 M535.5,605.4c1.3-0.1,2.6,0.4,3.4,1.4c0.9,1.2,1,2.7,1.3,4.1c0.2,0.9-0.5,1.6-1.4,1.4c-2-0.4-3.9-0.2-5.8,0.6
			c-0.5,0.2-0.8,0-1-0.3c-0.3-0.1-0.6-0.4-0.7-0.7c0-0.2,0-0.4,0-0.6c0-0.1-0.1-0.1-0.1-0.2C530.9,608.4,532.6,605.5,535.5,605.4z
			 M506.9,612.3c-2-0.4-3.9-0.2-5.8,0.6c-0.5,0.2-0.8,0-1-0.3c-0.3-0.1-0.6-0.4-0.7-0.7c0-0.2,0-0.4,0-0.6c0-0.1-0.1-0.1-0.1-0.2
			c-0.3-2.7,1.4-5.6,4.4-5.8c1.3-0.1,2.6,0.4,3.4,1.4c0.9,1.2,1,2.7,1.3,4.1C508.5,611.8,507.8,612.5,506.9,612.3z"/>
		<rect x="503.8" y="685.4" class="st19" width="27.4" height="26.3"/>
		<path class="st19" d="M515.2,636.7c0,0.2,0,0.4,0,0.6c0.1,0.4,0.4,0.6,0.7,0.7c0.2,0.3,0.6,0.5,1,0.3c1.9-0.8,3.8-1,5.8-0.6
			c0.8,0.2,1.6-0.5,1.4-1.4c-0.3-1.4-0.4-3-1.3-4.1c-0.8-1-2.1-1.5-3.4-1.4c-3,0.1-4.6,3.1-4.4,5.8
			C515.1,636.6,515.2,636.6,515.2,636.7z"/>
		<path class="st19" d="M550.2,637.3c0,0.2,0,0.4,0,0.6c0.1,0.4,0.4,0.6,0.7,0.7c0.2,0.3,0.6,0.5,1,0.3c1.9-0.8,3.8-1,5.8-0.6
			c0.8,0.2,1.6-0.5,1.4-1.4c-0.3-1.4-0.4-3-1.3-4.1c-0.8-1-2.1-1.5-3.4-1.4c-3,0.1-4.6,3.1-4.4,5.8
			C550.1,637.2,550.1,637.3,550.2,637.3z"/>
		<path class="st19" d="M507,606.8c-0.8-1-2.1-1.5-3.4-1.4c-3,0.1-4.6,3.1-4.4,5.8c0,0.1,0,0.1,0.1,0.2c0,0.2,0,0.4,0,0.6
			c0.1,0.4,0.4,0.6,0.7,0.7c0.2,0.3,0.6,0.5,1,0.3c1.9-0.8,3.8-1,5.8-0.6c0.8,0.2,1.6-0.5,1.4-1.4C508,609.5,507.9,608,507,606.8z"
			/>
		<path class="st19" d="M531.3,611.3c0,0.2,0,0.4,0,0.6c0.1,0.4,0.4,0.6,0.7,0.7c0.2,0.3,0.6,0.5,1,0.3c1.9-0.8,3.8-1,5.8-0.6
			c0.8,0.2,1.6-0.5,1.4-1.4c-0.3-1.4-0.4-3-1.3-4.1c-0.8-1-2.1-1.5-3.4-1.4c-3,0.1-4.6,3.1-4.4,5.8
			C531.2,611.2,531.2,611.3,531.3,611.3z"/>
		<polygon class="st20" points="521.9,595.2 521.8,589.8 521.5,558.1 517.7,558.1 517.7,589.8 517.7,595.3 517.7,608.5 522,608.5 		
			"/>
		<polygon class="st21" points="556.8,572.6 521.5,558.1 522,579.9 		"/>
		<path class="st21" d="M580.2,687.6l5.3,1.5l11.2,3.2l5.1-15.6l-16.3-5l-0.3-0.1L580.2,687.6z M587.4,675.8l9.7,2.8l-2.9,9.4
			l-8.7-2.3l-1.2-0.3l1.2-3.8L587.4,675.8z"/>
		<polygon class="st9" points="585.6,685.7 594.2,688 597.1,678.6 587.4,675.8 585.6,681.6 584.3,685.4 		"/>
		<polygon class="st21" points="576.9,710.7 576.9,710.7 576.7,711.2 573.7,710 573.1,711.7 569.9,720.8 579,723.4 584,724.9 
			584.6,723.4 587.9,714.4 585.7,714.4 585.7,713.9 585.7,713.9 584.3,711.8 584.4,711.7 585.6,708 591,690.7 585.7,689.1 
			585.6,689.5 579,709.9 		"/>
		<polygon class="st9" points="587.9,714.4 584.6,723.4 584,724.9 579,723.4 569.9,720.8 573.1,711.7 573.7,710 576.7,711.2 
			576.9,710.7 577.1,710.3 573.1,708.7 572.1,711.7 568.6,721.5 575.4,723.4 584.7,726.1 585.6,723.4 589.3,713.4 585.7,713.4 
			585.7,713.9 585.7,714.4 		"/>
		<path class="st22" d="M498.9,75.6l-42.7-50.1l-3.8,3.2l43,50.4l1.9-1.6c-16.5,21.3-26.5,47.9-27.1,76.8h-93.1v5h93.1
			c0.7,39.3,18.9,74.3,47.2,97.6l-2-1.5l-41.7,57l4,3l41.6-56.9c22.1,17.6,50.1,28.1,80.6,28.1c2.3,0,4.6-0.1,6.8-0.2l1.4,75.9
			l5-0.1l-1.4-76.2c35.7-3.2,67.3-20.9,88.7-47.2l50.8,62.4l3.9-3.2l-51.2-62.8l-1.9,1.6c17.3-22,27.6-49.8,27.6-80
			c0-30.3-10.4-58.2-27.8-80.3l54.8-54.1l-3.5-3.6l-54.5,53.8C675,44.8,639.6,27.2,600,27.2C559.1,27.2,522.7,46.1,498.9,75.6z"/>
		<rect x="731.6" y="154.4" class="st22" width="36.4" height="5"/>
		<polygon class="st22" points="600,27.2 604.3,27.2 604.3,0 599.3,0 599.3,27.2 		"/>
		<path class="st23" d="M99.9,249.8c2.7-2,5.5-4.1,8.2-6.2c11.4,13.4,27.6,21.7,45.2,27.1c6.8,5.7,14,10.2,25.3,13.2
			c18.8,5,37.3,3,53.5-1.8c46.6,2.4,104.7-4.3,108.3-23.8c1.4-7.5-6.1-12.5-20.4-27.9c-2.1-2.2-4-4.4-5.8-6.5c1.5-3,2.7-6.1,3.6-9.6
			c7.7-28.7-8.8-55.9-24-69.6c-17.1-15.3-39.3-19.5-62.2-18.5c6.1-27.8-9.8-53.9-24.6-67.1C172,27.6,115.5,43.2,75.2,54.3
			C50.1,61.2,20.9,72.8,0,85.2v43.4v6.8v144.4C46.9,289,90.7,256.6,99.9,249.8z"/>
	</g>
</g>
</svg>
